  0
SECTION
  2
HEADER
  9
$ACADVER
  1
AC1014
  9
$ACADMAINTVER
 70
     9
  9
$DWGCODEPAGE
  3
ANSI_1252
  9
$INSBASE
 10
0.0
 20
0.0
 30
0.0
  9
$EXTMIN
 10
1.000000000000000E+20
 20
1.000000000000000E+20
 30
1.000000000000000E+20
  9
$EXTMAX
 10
-1.000000000000000E+20
 20
-1.000000000000000E+20
 30
-1.000000000000000E+20
  9
$LIMMIN
 10
0.0
 20
0.0
  9
$LIMMAX
 10
12.0
 20
9.0
  9
$ORTHOMODE
 70
     0
  9
$REGENMODE
 70
     1
  9
$FILLMODE
 70
     1
  9
$QTEXTMODE
 70
     0
  9
$MIRRTEXT
 70
     1
  9
$DRAGMODE
 70
     2
  9
$LTSCALE
 40
1.0
  9
$OSMODE
 70
    37
  9
$ATTMODE
 70
     1
  9
$TEXTSIZE
 40
0.2
  9
$TRACEWID
 40
0.05
  9
$TEXTSTYLE
  7
STANDARD
  9
$CLAYER
  8
0
  9
$CELTYPE
  6
BYLAYER
  9
$CECOLOR
 62
   256
  9
$CELTSCALE
 40
1.0
  9
$DELOBJ
 70
     1
  9
$DISPSILH
 70
     0
  9
$DIMSCALE
 40
1.0
  9
$DIMASZ
 40
0.18
  9
$DIMEXO
 40
0.0625
  9
$DIMDLI
 40
0.38
  9
$DIMRND
 40
0.0
  9
$DIMDLE
 40
0.0
  9
$DIMEXE
 40
0.18
  9
$DIMTP
 40
0.0
  9
$DIMTM
 40
0.0
  9
$DIMTXT
 40
0.18
  9
$DIMCEN
 40
0.09
  9
$DIMTSZ
 40
0.0
  9
$DIMTOL
 70
     0
  9
$DIMLIM
 70
     0
  9
$DIMTIH
 70
     1
  9
$DIMTOH
 70
     1
  9
$DIMSE1
 70
     0
  9
$DIMSE2
 70
     0
  9
$DIMTAD
 70
     0
  9
$DIMZIN
 70
     0
  9
$DIMBLK
  1

  9
$DIMASO
 70
     1
  9
$DIMSHO
 70
     1
  9
$DIMPOST
  1

  9
$DIMAPOST
  1

  9
$DIMALT
 70
     0
  9
$DIMALTD
 70
     2
  9
$DIMALTF
 40
25.4
  9
$DIMLFAC
 40
1.0
  9
$DIMTOFL
 70
     0
  9
$DIMTVP
 40
0.0
  9
$DIMTIX
 70
     0
  9
$DIMSOXD
 70
     0
  9
$DIMSAH
 70
     0
  9
$DIMBLK1
  1

  9
$DIMBLK2
  1

  9
$DIMSTYLE
  2
STANDARD
  9
$DIMCLRD
 70
     0
  9
$DIMCLRE
 70
     0
  9
$DIMCLRT
 70
     0
  9
$DIMTFAC
 40
1.0
  9
$DIMGAP
 40
0.09
  9
$DIMJUST
 70
     0
  9
$DIMSD1
 70
     0
  9
$DIMSD2
 70
     0
  9
$DIMTOLJ
 70
     1
  9
$DIMTZIN
 70
     0
  9
$DIMALTZ
 70
     0
  9
$DIMALTTZ
 70
     0
  9
$DIMFIT
 70
     3
  9
$DIMUPT
 70
     0
  9
$DIMUNIT
 70
     2
  9
$DIMDEC
 70
     4
  9
$DIMTDEC
 70
     4
  9
$DIMALTU
 70
     2
  9
$DIMALTTD
 70
     2
  9
$DIMTXSTY
  7
STANDARD
  9
$DIMAUNIT
 70
     0
  9
$LUNITS
 70
     2
  9
$LUPREC
 70
     4
  9
$SKETCHINC
 40
0.1
  9
$FILLETRAD
 40
0.5
  9
$AUNITS
 70
     0
  9
$AUPREC
 70
     0
  9
$MENU
  1
.
  9
$ELEVATION
 40
0.0
  9
$PELEVATION
 40
0.0
  9
$THICKNESS
 40
0.0
  9
$LIMCHECK
 70
     0
  9
$CHAMFERA
 40
0.0
  9
$CHAMFERB
 40
0.0
  9
$CHAMFERC
 40
0.0
  9
$CHAMFERD
 40
0.0
  9
$SKPOLY
 70
     0
  9
$TDCREATE
 40
2458806.712884421
  9
$TDUPDATE
 40
2458806.712884595
  9
$TDINDWG
 40
0.0000000116
  9
$TDUSRTIMER
 40
0.0000000116
  9
$USRTIMER
 70
     1
  9
$ANGBASE
 50
0.0
  9
$ANGDIR
 70
     0
  9
$PDMODE
 70
     0
  9
$PDSIZE
 40
0.0
  9
$PLINEWID
 40
0.0
  9
$COORDS
 70
     1
  9
$SPLFRAME
 70
     0
  9
$SPLINETYPE
 70
     6
  9
$SPLINESEGS
 70
     8
  9
$ATTDIA
 70
     0
  9
$ATTREQ
 70
     1
  9
$HANDLING
 70
     1
  9
$HANDSEED
  5
1D1
  9
$SURFTAB1
 70
     6
  9
$SURFTAB2
 70
     6
  9
$SURFTYPE
 70
     6
  9
$SURFU
 70
     6
  9
$SURFV
 70
     6
  9
$UCSNAME
  2

  9
$UCSORG
 10
0.0
 20
0.0
 30
0.0
  9
$UCSXDIR
 10
1.0
 20
0.0
 30
0.0
  9
$UCSYDIR
 10
0.0
 20
1.0
 30
0.0
  9
$PUCSNAME
  2

  9
$PUCSORG
 10
0.0
 20
0.0
 30
0.0
  9
$PUCSXDIR
 10
1.0
 20
0.0
 30
0.0
  9
$PUCSYDIR
 10
0.0
 20
1.0
 30
0.0
  9
$USERI1
 70
     0
  9
$USERI2
 70
     0
  9
$USERI3
 70
     0
  9
$USERI4
 70
     0
  9
$USERI5
 70
     0
  9
$USERR1
 40
0.0
  9
$USERR2
 40
0.0
  9
$USERR3
 40
0.0
  9
$USERR4
 40
0.0
  9
$USERR5
 40
0.0
  9
$WORLDVIEW
 70
     1
  9
$SHADEDGE
 70
     3
  9
$SHADEDIF
 70
    70
  9
$TILEMODE
 70
     1
  9
$MAXACTVP
 70
    64
  9
$PINSBASE
 10
0.0
 20
0.0
 30
0.0
  9
$PLIMCHECK
 70
     0
  9
$PEXTMIN
 10
1.000000000000000E+20
 20
1.000000000000000E+20
 30
1.000000000000000E+20
  9
$PEXTMAX
 10
-1.000000000000000E+20
 20
-1.000000000000000E+20
 30
-1.000000000000000E+20
  9
$PLIMMIN
 10
0.0
 20
0.0
  9
$PLIMMAX
 10
12.0
 20
9.0
  9
$UNITMODE
 70
     0
  9
$VISRETAIN
 70
     1
  9
$PLINEGEN
 70
     0
  9
$PSLTSCALE
 70
     1
  9
$TREEDEPTH
 70
  3020
  9
$PICKSTYLE
 70
     1
  9
$CMLSTYLE
  2
STANDARD
  9
$CMLJUST
 70
     0
  9
$CMLSCALE
 40
1.0
  9
$PROXYGRAPHICS
 70
     1
  9
$MEASUREMENT
 70
     1
  0
ENDSEC
  0
SECTION
  2
CLASSES
  0
CLASS
  1
ACDBDICTIONARYWDFLT
  2
AcDbDictionaryWithDefault
  3
ObjectDBX Classes
 90
        0
280
     0
281
     0
  0
CLASS
  1
VISUALSTYLE
  2
AcDbVisualStyle
  3
ObjectDBX Classes
 90
     4095
280
     0
281
     0
  0
CLASS
  1
MATERIAL
  2
AcDbMaterial
  3
ObjectDBX Classes
 90
     1153
280
     0
281
     0
  0
CLASS
  1
SCALE
  2
AcDbScale
  3
ObjectDBX Classes
 90
     1153
280
     0
281
     0
  0
CLASS
  1
TABLESTYLE
  2
AcDbTableStyle
  3
ObjectDBX Classes
 90
     4095
280
     0
281
     0
  0
CLASS
  1
MLEADERSTYLE
  2
AcDbMLeaderStyle
  3
ACDB_MLEADERSTYLE_CLASS
 90
     4095
280
     0
281
     0
  0
CLASS
  1
SUN
  2
AcDbSun
  3
SCENEOE
 90
     1153
280
     0
281
     0
  0
CLASS
  1
DICTIONARYVAR
  2
AcDbDictionaryVar
  3
ObjectDBX Classes
 90
        0
280
     0
281
     0
  0
CLASS
  1
XRECORD
  2
AcDbXrecord
  3
ObjectDBX Classes
 90
        0
280
     0
281
     0
  0
CLASS
  1
LWPOLYLINE
  2
AcDbPolyline
  3
ObjectDBX Classes
 90
        0
280
     0
281
     1
  0
CLASS
  1
HATCH
  2
AcDbHatch
  3
ObjectDBX Classes
 90
        0
280
     0
281
     1
  0
CLASS
  1
ACDBPLACEHOLDER
  2
AcDbPlaceHolder
  3
ObjectDBX Classes
 90
        0
280
     0
281
     0
  0
CLASS
  1
LAYOUT
  2
AcDbLayout
  3
ObjectDBX Classes
 90
        0
280
     0
281
     0
  0
ENDSEC
  0
SECTION
  2
TABLES
  0
TABLE
  2
VPORT
  5
8
102
{ACAD_XDICTIONARY
360
1C6
102
}
330
0
100
AcDbSymbolTable
 70
     1
  0
VPORT
  5
29
330
8
100
AcDbSymbolTableRecord
100
AcDbViewportTableRecord
  2
*ACTIVE
 70
     0
 10
0.0
 20
0.0
 11
1.0
 21
1.0
 12
0.0
 22
0.0
 13
0.0
 23
0.0
 14
0.5
 24
0.5
 15
0.5
 25
0.5
 16
0.0
 26
0.0
 36
1.0
 17
0.0
 27
0.0
 37
-1000.0
 40
14.25406014196122
 41
1.485804416403786
 42
50.0
 43
22.60405152940842
 44
22604.05152940842
 50
0.0
 51
0.0
 71
     0
 72
   100
 73
     1
 74
     3
 75
     0
 76
     0
 77
     0
 78
     0
  0
ENDTAB
  0
TABLE
  2
LTYPE
  5
5
330
0
100
AcDbSymbolTable
 70
     1
  0
LTYPE
  5
14
330
5
100
AcDbSymbolTableRecord
100
AcDbLinetypeTableRecord
  2
BYBLOCK
 70
     0
  3

 72
    65
 73
     0
 40
0.0
  0
LTYPE
  5
15
330
5
100
AcDbSymbolTableRecord
100
AcDbLinetypeTableRecord
  2
BYLAYER
 70
     0
  3

 72
    65
 73
     0
 40
0.0
  0
LTYPE
  5
16
330
5
100
AcDbSymbolTableRecord
100
AcDbLinetypeTableRecord
  2
CONTINUOUS
 70
     0
  3
Solid line
 72
    65
 73
     0
 40
0.0
  0
ENDTAB
  0
TABLE
  2
LAYER
  5
2
330
0
100
AcDbSymbolTable
 70
     3
  0
LAYER
  5
10
330
2
100
AcDbSymbolTableRecord
100
AcDbLayerTableRecord
  2
0
 70
     0
 62
     7
  6
CONTINUOUS
  0
LAYER
  5
6E
330
2
100
AcDbSymbolTableRecord
100
AcDbLayerTableRecord
  2
PROFILEEDGES
 70
     0
 62
     7
  6
CONTINUOUS
  0
LAYER
  5
6F
330
2
100
AcDbSymbolTableRecord
100
AcDbLayerTableRecord
  2
SECTIONCUTEDGES
 70
     0
 62
     7
  6
CONTINUOUS
  0
ENDTAB
  0
TABLE
  2
STYLE
  5
3
330
0
100
AcDbSymbolTable
 70
     1
  0
STYLE
  5
11
330
3
100
AcDbSymbolTableRecord
100
AcDbTextStyleTableRecord
  2
STANDARD
 70
     0
 40
0.0
 41
1.0
 50
0.0
 71
     0
 42
0.2
  3
txt
  4

  0
ENDTAB
  0
TABLE
  2
VIEW
  5
6
330
0
100
AcDbSymbolTable
 70
     0
  0
ENDTAB
  0
TABLE
  2
UCS
  5
7
330
0
100
AcDbSymbolTable
 70
     0
  0
ENDTAB
  0
TABLE
  2
APPID
  5
9
330
0
100
AcDbSymbolTable
 70
     2
  0
APPID
  5
12
330
9
100
AcDbSymbolTableRecord
100
AcDbRegAppTableRecord
  2
ACAD
 70
     0
  0
APPID
  5
1D0
330
9
100
AcDbSymbolTableRecord
100
AcDbRegAppTableRecord
  2
ACAD_MLEADERVER
 70
     0
  0
ENDTAB
  0
TABLE
  2
DIMSTYLE
  5
A
330
0
100
AcDbSymbolTable
 70
     1
  0
DIMSTYLE
105
27
330
A
100
AcDbSymbolTableRecord
100
AcDbDimStyleTableRecord
  2
STANDARD
 70
     0
  3

  4

  5

  6

  7

 40
1.0
 41
0.18
 42
0.0625
 43
0.38
 44
0.18
 45
0.0
 46
0.0
 47
0.0
 48
0.0
140
0.18
141
0.09
142
0.0
143
25.4
144
1.0
145
0.0
146
1.0
147
0.09
 71
     0
 72
     0
 73
     1
 74
     1
 75
     0
 76
     0
 77
     0
 78
     0
170
     0
171
     2
172
     0
173
     0
174
     0
175
     0
176
     0
177
     0
178
     0
270
     2
271
     4
272
     4
273
     2
274
     2
340
11
275
     0
280
     0
281
     0
282
     0
283
     1
284
     0
285
     0
286
     0
287
     3
288
     0
  0
ENDTAB
  0
TABLE
  2
BLOCK_RECORD
  5
1
330
0
100
AcDbSymbolTable
 70
     0
  0
BLOCK_RECORD
  5
1F
330
1
100
AcDbSymbolTableRecord
100
AcDbBlockTableRecord
  2
*MODEL_SPACE
  0
BLOCK_RECORD
  5
1B
330
1
100
AcDbSymbolTableRecord
100
AcDbBlockTableRecord
  2
*PAPER_SPACE
  0
ENDTAB
  0
ENDSEC
  0
SECTION
  2
BLOCKS
  0
BLOCK
  5
20
330
1F
100
AcDbEntity
  8
0
100
AcDbBlockBegin
  2
*MODEL_SPACE
 70
     0
 10
0.0
 20
0.0
 30
0.0
  3
*MODEL_SPACE
  1

  0
ENDBLK
  5
21
330
1F
100
AcDbEntity
  8
0
100
AcDbBlockEnd
  0
BLOCK
  5
1C
330
1B
100
AcDbEntity
 67
     1
  8
0
100
AcDbBlockBegin
  2
*PAPER_SPACE
 70
     0
 10
0.0
 20
0.0
 30
0.0
  3
*PAPER_SPACE
  1

  0
ENDBLK
  5
1D
330
1B
100
AcDbEntity
 67
     1
  8
0
100
AcDbBlockEnd
  0
ENDSEC
  0
SECTION
  2
ENTITIES
  0
LINE
  5
70
330
1F
100
AcDbEntity
  8
0
100
AcDbLine
 10
8.887122060460227
 20
1.330319076344667
 30
0.0
 11
8.737202140964412
 21
2.123245877525075
 31
0.0
  0
LINE
  5
71
330
1F
100
AcDbEntity
  8
0
100
AcDbLine
 10
7.208410866838632
 20
6.41267873322417
 30
0.0
 11
7.029193329633849
 21
6.619203591845479
 31
0.0
  0
LINE
  5
72
330
1F
100
AcDbEntity
  8
0
100
AcDbLine
 10
-9.443975646893888
 20
7.127030070980612
 30
0.0
 11
-9.724379973505336
 21
6.68229037224975
 31
0.0
  0
LINE
  5
73
330
1F
100
AcDbEntity
  8
0
100
AcDbLine
 10
-9.766176843635062
 20
-5.121144558053786
 30
0.0
 11
-9.584366523949535
 21
-5.317989123969045
 31
0.0
  0
LINE
  5
74
330
1F
100
AcDbEntity
  8
0
100
AcDbLine
 10
-7.969514342833121
 20
-7.066376548615935
 30
0.0
 11
-7.874505470061358
 21
-7.127030070980612
 31
0.0
  0
LINE
  5
75
330
1F
100
AcDbEntity
  8
0
100
AcDbLine
 10
6.316442314227162
 20
-6.034479863879666
 30
0.0
 11
6.763060322126663
 21
-5.378054175223126
 31
0.0
  0
LINE
  5
76
330
1F
100
AcDbEntity
  8
0
100
AcDbLine
 10
8.684865139360271
 20
-1.336821655921438
 30
0.0
 11
8.705158163105272
 21
-1.069219687510128
 31
0.0
  0
LINE
  5
77
330
1F
100
AcDbEntity
  8
0
100
AcDbLine
 10
8.588033468598862
 20
2.912199330894247
 30
0.0
 11
8.437764980005273
 21
3.706969714839339
 31
0.0
  0
LINE
  5
78
330
1F
100
AcDbEntity
  8
0
100
AcDbLine
 10
7.446383806993156
 20
5.920504483085217
 30
0.0
 11
7.208410866838632
 21
6.41267873322417
 31
0.0
  0
LINE
  5
79
330
1F
100
AcDbEntity
  8
0
100
AcDbLine
 10
8.151003013542212
 20
4.463215140054995
 30
0.0
 11
7.799213608918402
 21
5.190783939747648
 31
0.0
  0
LINE
  5
7A
330
1F
100
AcDbEntity
  8
0
100
AcDbLine
 10
-10.58937275530558
 20
-3.568493873970015
 30
0.0
 11
-10.38718621899649
 21
-3.949843027266741
 31
0.0
  0
LINE
  5
7B
330
1F
100
AcDbEntity
  8
0
100
AcDbLine
 10
5.120543082933767
 20
-7.071460233993171
 30
0.0
 11
5.715382851167933
 21
-6.55566663961601
 31
0.0
  0
LINE
  5
7C
330
1F
100
AcDbEntity
  8
0
100
AcDbLine
 10
7.207211755593036
 20
-4.725253783335442
 30
0.0
 11
7.654407552642485
 21
-4.067978877598656
 31
0.0
  0
LINE
  5
7D
330
1F
100
AcDbEntity
  8
0
100
AcDbLine
 10
8.507216107480616
 20
-1.84359972721807
 30
0.0
 11
8.684865139360271
 21
-1.336821655921438
 31
0.0
  0
LINE
  5
7E
330
1F
100
AcDbEntity
  8
0
100
AcDbLine
 10
7.981306813812732
 20
-3.343857255794275
 30
0.0
 11
8.243855342831374
 21
-2.594887020775885
 31
0.0
  0
LINE
  5
7F
330
1F
100
AcDbEntity
  8
0
100
AcDbLine
 10
8.765613841516268
 20
-0.2719970188872333
 30
0.0
 11
8.826017794108548
 21
0.5245435468077758
 31
0.0
  0
LINE
  5
80
330
1F
100
AcDbEntity
  8
0
100
AcDbLine
 10
-10.15559899123365
 20
5.998348657265754
 30
0.0
 11
-10.58740162806349
 21
5.31348128401389
 31
0.0
  0
LINE
  5
81
330
1F
100
AcDbEntity
  8
0
100
AcDbLine
 10
-9.044784318798694
 20
-5.902190423060549
 30
0.0
 11
-8.508717314700254
 21
-6.482585842340172
 31
0.0
  0
LINE
  5
82
330
1F
100
AcDbEntity
  8
0
100
AcDbLine
 10
-10.0155861102462
 20
-4.650727415633031
 30
0.0
 11
-9.766176843635062
 21
-5.121144558053786
 31
0.0
  0
LINE
  5
83
330
1F
100
AcDbEntity
  8
0
100
AcDbLine
 10
4.009212440469145
 20
1.11463463320187
 30
0.0
 11
3.946506828768367
 21
1.391348633833343
 31
0.0
  0
LINE
  5
84
330
1F
100
AcDbEntity
  8
0
100
AcDbLine
 10
2.06556263795714
 20
4.79184135723819
 30
0.0
 11
1.822635954552457
 21
4.943832253548578
 31
0.0
  0
LINE
  5
85
330
1F
100
AcDbEntity
  8
0
100
AcDbLine
 10
-6.75538177568211
 20
0.0420367374628727
 30
0.0
 11
-6.686817974381872
 21
-0.2331548270510395
 31
0.0
  0
LINE
  5
86
330
1F
100
AcDbEntity
  8
0
100
AcDbLine
 10
-4.765162568699095
 20
-3.5649260219145
 30
0.0
 11
-4.524430303534452
 21
-3.711718950282281
 31
0.0
  0
LINE
  5
87
330
1F
100
AcDbEntity
  8
0
100
AcDbLine
 10
-0.832404528889143
 20
-4.736251568333049
 30
0.0
 11
-0.5589466192818155
 21
-4.672915712644079
 31
0.0
  0
LINE
  5
88
330
1F
100
AcDbEntity
  8
0
100
AcDbLine
 10
2.788454753150875
 20
-2.818136533902106
 30
0.0
 11
2.938528092111961
 21
-2.580459424319918
 31
0.0
  0
LINE
  5
89
330
1F
100
AcDbEntity
  8
0
100
AcDbLine
 10
3.970169959464092
 20
0.1296846882441816
 30
0.0
 11
8.765613841516268
 21
-0.2719970188872333
 31
0.0
  0
LINE
  5
8A
330
1F
100
AcDbEntity
  8
0
100
AcDbLine
 10
3.953409087800765
 20
-0.2931526724270924
 30
0.0
 11
8.705158163105272
 21
-1.069219687510128
 31
0.0
  0
LINE
  5
8B
330
1F
100
AcDbEntity
  8
0
100
AcDbLine
 10
3.827594171491838
 20
-0.6974583510169836
 30
0.0
 11
3.862854705519446
 21
-0.7060944240906096
 31
0.0
  0
LINE
  5
8C
330
1F
100
AcDbEntity
  8
0
100
AcDbLine
 10
3.703018604277131
 20
-1.0977813867596
 30
0.0
 11
3.709189582016961
 21
-1.099815946924061
 31
0.0
  0
LINE
  5
8D
330
1F
100
AcDbEntity
  8
0
100
AcDbLine
 10
3.578134164455275
 20
-1.499096983262776
 30
0.0
 11
7.981306813812732
 21
-3.343857255794275
 31
0.0
  0
LINE
  5
8E
330
1F
100
AcDbEntity
  8
0
100
AcDbLine
 10
3.385510385008738
 20
-1.872555807691017
 30
0.0
 11
3.395214828359577
 21
-1.877546642085976
 31
0.0
  0
LINE
  5
8F
330
1F
100
AcDbEntity
  8
0
100
AcDbLine
 10
2.938528092111961
 20
-2.580459424319918
 30
0.0
 11
6.763060322126663
 21
-5.378054175223126
 31
0.0
  0
LINE
  5
90
330
1F
100
AcDbEntity
  8
0
100
AcDbLine
 10
2.684832450218781
 20
-2.914053198335741
 30
0.0
 11
6.316442314227162
 21
-6.034479863879666
 31
0.0
  0
LINE
  5
91
330
1F
100
AcDbEntity
  8
0
100
AcDbLine
 10
2.07087789908321
 20
-3.482352406059251
 30
0.0
 11
5.120543082933767
 21
-7.071460233993171
 31
0.0
  0
LINE
  5
92
330
1F
100
AcDbEntity
  8
0
100
AcDbLine
 10
1.762538993807291
 20
-3.767762385111543
 30
0.0
 11
4.19107664716611
 21
-7.127030070980612
 31
0.0
  0
LINE
  5
93
330
1F
100
AcDbEntity
  8
0
100
AcDbLine
 10
1.022159483641309
 20
-4.159642740336121
 30
0.0
 11
1.02505680294145
 21
-4.165359059384802
 31
0.0
  0
LINE
  5
94
330
1F
100
AcDbEntity
  8
0
100
AcDbLine
 10
0.652422855517424
 20
-4.355343079391095
 30
0.0
 11
1.793784106575772
 21
-7.127030070980612
 31
0.0
  0
LINE
  5
95
330
1F
100
AcDbEntity
  8
0
100
AcDbLine
 10
0.2543672801125554
 20
-4.484543279621572
 30
0.0
 11
0.2576762375379937
 21
-4.494798790134126
 31
0.0
  0
LINE
  5
96
330
1F
100
AcDbEntity
  8
0
100
AcDbLine
 10
-0.5589466192818155
 20
-4.672915712644079
 30
0.0
 11
-0.175665849328465
 21
-7.127030070980612
 31
0.0
  0
LINE
  5
97
330
1F
100
AcDbEntity
  8
0
100
AcDbLine
 10
-0.9732079773474521
 20
-4.731885831156177
 30
0.0
 11
-0.7901624754395546
 21
-7.127030070980612
 31
0.0
  0
LINE
  5
98
330
1F
100
AcDbEntity
  8
0
100
AcDbLine
 10
-1.808653358503831
 20
-4.705982097975228
 30
0.0
 11
-2.00552900045854
 21
-7.127030070980612
 31
0.0
  0
LINE
  5
99
330
1F
100
AcDbEntity
  8
0
100
AcDbLine
 10
-2.229002022083894
 20
-4.692948810737207
 30
0.0
 11
-2.621549857284165
 21
-7.127030070980612
 31
0.0
  0
LINE
  5
9A
330
1F
100
AcDbEntity
  8
0
100
AcDbLine
 10
-3.032315569229969
 20
-4.453875584399935
 30
0.0
 11
-3.034309323227
 21
-4.459943241888412
 31
0.0
  0
LINE
  5
9B
330
1F
100
AcDbEntity
  8
0
100
AcDbLine
 10
-3.809681114877862
 20
-4.14755635819891
 30
0.0
 11
-3.814608802175654
 21
-4.157135860475814
 31
0.0
  0
LINE
  5
9C
330
1F
100
AcDbEntity
  8
0
100
AcDbLine
 10
-4.524430303534452
 20
-3.711718950282281
 30
0.0
 11
-7.028858440411395
 21
-7.127030070980612
 31
0.0
  0
LINE
  5
9D
330
1F
100
AcDbEntity
  8
0
100
AcDbLine
 10
-4.862847170936985
 20
-3.463059947839182
 30
0.0
 11
-7.969514342833121
 21
-7.066376548615935
 31
0.0
  0
LINE
  5
9E
330
1F
100
AcDbEntity
  8
0
100
AcDbLine
 10
-5.443259717232286
 20
-2.857802352673698
 30
0.0
 11
-9.044784318798694
 21
-5.902190423060549
 31
0.0
  0
LINE
  5
9F
330
1F
100
AcDbEntity
  8
0
100
AcDbLine
 10
-5.735815118671075
 20
-2.552723870380668
 30
0.0
 11
-9.584366523949535
 21
-5.317989123969045
 31
0.0
  0
LINE
  5
A0
330
1F
100
AcDbEntity
  8
0
100
AcDbLine
 10
-6.142660872750717
 20
-1.816511350344177
 30
0.0
 11
-6.148436757722965
 21
-1.819414355360875
 31
0.0
  0
LINE
  5
A1
330
1F
100
AcDbEntity
  8
0
100
AcDbLine
 10
-6.346544264297825
 20
-1.447571760882253
 30
0.0
 11
-10.58937275530558
 21
-3.177412994502864
 31
0.0
  0
LINE
  5
A2
330
1F
100
AcDbEntity
  8
0
100
AcDbLine
 10
-6.686817974381872
 20
-0.2331548270510395
 30
0.0
 11
-10.58937275530558
 21
-0.8293666295931417
 31
0.0
  0
LINE
  5
A3
330
1F
100
AcDbEntity
  8
0
100
AcDbLine
 10
-6.752874919418781
 20
0.1838071001361134
 30
0.0
 11
-10.58937275530558
 21
-0.0974327697436861
 31
0.0
  0
LINE
  5
A4
330
1F
100
AcDbEntity
  8
0
100
AcDbLine
 10
-6.737971642156921
 20
1.026632854991051
 30
0.0
 11
-10.58937275530558
 21
1.349238522376181
 31
0.0
  0
LINE
  5
A5
330
1F
100
AcDbEntity
  8
0
100
AcDbLine
 10
-6.730454300667755
 20
1.451761429315761
 30
0.0
 11
-10.58937275530558
 21
2.082009213674555
 31
0.0
  0
LINE
  5
A6
330
1F
100
AcDbEntity
  8
0
100
AcDbLine
 10
-6.496073183707978
 20
2.264840670976847
 30
0.0
 11
-6.502329692603886
 21
2.26690343060844
 31
0.0
  0
LINE
  5
A7
330
1F
100
AcDbEntity
  8
0
100
AcDbLine
 10
-6.378591874201557
 20
2.672388920946418
 30
0.0
 11
-10.58937275530558
 21
4.436544429799659
 31
0.0
  0
LINE
  5
A8
330
1F
100
AcDbEntity
  8
0
100
AcDbLine
 10
-6.191733608294453
 20
3.052862065677018
 30
0.0
 11
-6.201635783559241
 21
3.05795459031858
 31
0.0
  0
LINE
  5
A9
330
1F
100
AcDbEntity
  8
0
100
AcDbLine
 10
-5.753021098141579
 20
3.777293871898926
 30
0.0
 11
-9.724379973505336
 21
6.68229037224975
 31
0.0
  0
LINE
  5
AA
330
1F
100
AcDbEntity
  8
0
100
AcDbLine
 10
-4.887127180331705
 20
4.706425375048485
 30
0.0
 11
-6.943915167473032
 21
7.127030070980612
 31
0.0
  0
LINE
  5
AB
330
1F
100
AcDbEntity
  8
0
100
AcDbLine
 10
-4.577377826735002
 20
5.001909222363449
 30
0.0
 11
-6.113705527118699
 21
7.127030070980612
 31
0.0
  0
LINE
  5
AC
330
1F
100
AcDbEntity
  8
0
100
AcDbLine
 10
-3.827594417171946
 20
5.408767825792993
 30
0.0
 11
-3.830607466051899
 21
5.414712475630445
 31
0.0
  0
LINE
  5
AD
330
1F
100
AcDbEntity
  8
0
100
AcDbLine
 10
-3.452242977390108
 20
5.612446595737839
 30
0.0
 11
-4.075937822941188
 21
7.127030070980612
 31
0.0
  0
LINE
  5
AE
330
1F
100
AcDbEntity
  8
0
100
AcDbLine
 10
-3.046888253274575
 20
5.747096622255485
 30
0.0
 11
-3.050338795840138
 21
5.757790950107327
 31
0.0
  0
LINE
  5
AF
330
1F
100
AcDbEntity
  8
0
100
AcDbLine
 10
1.09961831034008
 20
5.396199602626283
 30
0.0
 11
1.104742393397705
 21
5.406160901375966
 31
0.0
  0
LINE
  5
B0
330
1F
100
AcDbEntity
  8
0
100
AcDbLine
 10
2.74321958556922
 20
4.062272528135761
 30
0.0
 11
6.368841363475438
 21
7.127030070980612
 31
0.0
  0
LINE
  5
B1
330
1F
100
AcDbEntity
  8
0
100
AcDbLine
 10
3.034358674465039
 20
3.748830741786111
 30
0.0
 11
7.029193329633849
 21
6.619203591845479
 31
0.0
  0
LINE
  5
B2
330
1F
100
AcDbEntity
  8
0
100
AcDbLine
 10
3.43180485694466
 20
2.995690100834548
 30
0.0
 11
3.437695648033302
 21
2.998650858565187
 31
0.0
  0
LINE
  5
B3
330
1F
100
AcDbEntity
  8
0
100
AcDbLine
 10
3.630069783876273
 20
2.619987978811963
 30
0.0
 11
8.151003013542212
 21
4.463215140054995
 31
0.0
  0
LINE
  5
B4
330
1F
100
AcDbEntity
  8
0
100
AcDbLine
 10
3.759686493209257
 20
2.215769304483737
 30
0.0
 11
3.770241219131748
 21
2.219133765270561
 31
0.0
  0
LINE
  5
B5
330
1F
100
AcDbEntity
  8
0
100
AcDbLine
 10
3.946506828768367
 20
1.391348633833343
 30
0.0
 11
8.737202140964412
 21
2.123245877525075
 31
0.0
  0
LINE
  5
B6
330
1F
100
AcDbEntity
  8
0
100
AcDbLine
 10
4.003571363158807
 20
0.9723235237827852
 30
0.0
 11
8.887122060460227
 21
1.330319076344667
 31
0.0
  0
LINE
  5
B7
330
1F
100
AcDbEntity
  8
0
100
AcDbLine
 10
4.003571363158807
 20
0.9723235237827852
 30
0.0
 11
4.009212440469145
 21
1.11463463320187
 31
0.0
  0
LINE
  5
B8
330
1F
100
AcDbEntity
  8
0
100
AcDbLine
 10
3.630069783876273
 20
2.619987978811963
 30
0.0
 11
3.469141253838432
 21
2.924939495779198
 31
0.0
  0
LINE
  5
B9
330
1F
100
AcDbEntity
  8
0
100
AcDbLine
 10
-3.452242977390108
 20
5.612446595737839
 30
0.0
 11
-3.756977383485551
 21
5.447087088846185
 31
0.0
  0
LINE
  5
BA
330
1F
100
AcDbEntity
  8
0
100
AcDbLine
 10
-6.378591874201557
 20
2.672388920946418
 30
0.0
 11
-6.473978245821252
 21
2.341489061318514
 31
0.0
  0
LINE
  5
BB
330
1F
100
AcDbEntity
  8
0
100
AcDbLine
 10
-6.346544264297825
 20
-1.447571760882253
 30
0.0
 11
-6.181007870022456
 21
-1.747120090353939
 31
0.0
  0
LINE
  5
BC
330
1F
100
AcDbEntity
  8
0
100
AcDbLine
 10
-3.434265699759619
 20
-4.334251665602858
 30
0.0
 11
-3.107946914816655
 21
-4.431367026109271
 31
0.0
  0
LINE
  5
BD
330
1F
100
AcDbEntity
  8
0
100
AcDbLine
 10
0.652422855517424
 20
-4.355343079391095
 30
0.0
 11
0.9525526581985743
 21
-4.196485396171425
 31
0.0
  0
LINE
  5
BE
330
1F
100
AcDbEntity
  8
0
100
AcDbLine
 10
2.684832450218781
 20
-2.914053198335741
 30
0.0
 11
2.788454753150875
 21
-2.818136533902106
 31
0.0
  0
LINE
  5
BF
330
1F
100
AcDbEntity
  8
0
100
AcDbLine
 10
3.385510385008738
 20
-1.872555807691017
 30
0.0
 11
3.418006664104629
 21
-1.821090159354247
 31
0.0
  0
LINE
  5
C0
330
1F
100
AcDbEntity
  8
0
100
AcDbLine
 10
3.578134164455275
 20
-1.499096983262776
 30
0.0
 11
3.679499777438521
 21
-1.173359033063784
 31
0.0
  0
LINE
  5
C1
330
1F
100
AcDbEntity
  8
0
100
AcDbLine
 10
2.163429615253132
 20
4.686477284332007
 30
0.0
 11
2.06556263795714
 21
4.79184135723819
 31
0.0
  0
LINE
  5
C2
330
1F
100
AcDbEntity
  8
0
100
AcDbLine
 10
-3.046888253274575
 20
5.747096622255485
 30
0.0
 11
-3.107100043998594
 21
5.732833441019614
 31
0.0
  0
LINE
  5
C3
330
1F
100
AcDbEntity
  8
0
100
AcDbLine
 10
-6.191733608294453
 20
3.052862065677018
 30
0.0
 11
-6.223528593156128
 21
3.000360033528235
 31
0.0
  0
LINE
  5
C4
330
1F
100
AcDbEntity
  8
0
100
AcDbLine
 10
-4.862847170936985
 20
-3.463059947839182
 30
0.0
 11
-4.765162568699095
 21
-3.5649260219145
 31
0.0
  0
LINE
  5
C5
330
1F
100
AcDbEntity
  8
0
100
AcDbLine
 10
3.827594171491838
 20
-0.6974583510169836
 30
0.0
 11
3.887454540152854
 21
-0.5050973203684802
 31
0.0
  0
LINE
  5
C6
330
1F
100
AcDbEntity
  8
0
100
AcDbLine
 10
3.759686493209257
 20
2.215769304483737
 30
0.0
 11
3.746101086510522
 21
2.275720433830049
 31
0.0
  0
LINE
  5
C7
330
1F
100
AcDbEntity
  8
0
100
AcDbLine
 10
-6.752874919418781
 20
0.1838071001361134
 30
0.0
 11
-6.75538177568211
 21
0.0420367374628727
 31
0.0
  0
LINE
  5
C8
330
1F
100
AcDbEntity
  8
0
100
AcDbLine
 10
-3.809681114877862
 20
-4.14755635819891
 30
0.0
 11
-3.757848944770423
 21
-4.179162408299888
 31
0.0
  0
LINE
  5
C9
330
1F
100
AcDbEntity
  8
0
100
AcDbLine
 10
-0.9732079773474521
 20
-4.731885831156177
 30
0.0
 11
-0.832404528889143
 21
-4.736251568333049
 31
0.0
  0
LINE
  5
CA
330
1F
100
AcDbEntity
  8
0
100
AcDbLine
 10
0.2543672801125554
 20
-4.484543279621572
 30
0.0
 11
0.3134287787838136
 21
-4.470863987762723
 31
0.0
  0
LINE
  5
CB
330
1F
100
AcDbEntity
  8
0
100
AcDbLine
 10
-4.602818849732479
 20
-7.127030070980612
 30
0.0
 11
-3.434265699759619
 21
-4.334251665602858
 31
0.0
  0
LINE
  5
CC
330
1F
100
AcDbEntity
  8
0
100
AcDbLine
 10
9.444126937257185
 20
0.7663976112498178
 30
0.0
 11
9.078181396437834
 21
3.572485737050822
 31
0.0
  0
LINE
  5
CD
330
1F
100
AcDbEntity
  8
0
100
AcDbLine
 10
9.078181396437834
 20
3.572485737050822
 30
0.0
 11
7.987328062789403
 21
6.203334738802942
 31
0.0
  0
LINE
  5
CE
330
1F
100
AcDbEntity
  8
0
100
AcDbLine
 10
7.987328062789403
 20
6.203334738802942
 30
0.0
 11
7.274307172730118
 21
7.127030070980612
 31
0.0
  0
LINE
  5
CF
330
1F
100
AcDbEntity
  8
0
100
AcDbLine
 10
-10.58937275530558
 20
6.391470377399687
 30
0.0
 11
-10.06610044964191
 21
7.127030070980612
 31
0.0
  0
LINE
  5
D0
330
1F
100
AcDbEntity
  8
0
100
AcDbLine
 10
-10.58937275530558
 20
-4.802837058714063
 30
0.0
 11
-10.5345922965124
 21
-4.921281158656819
 31
0.0
  0
LINE
  5
D1
330
1F
100
AcDbEntity
  8
0
100
AcDbLine
 10
-10.5345922965124
 20
-4.921281158656819
 30
0.0
 11
-8.756747720804302
 21
-7.068420403036361
 31
0.0
  0
LINE
  5
D2
330
1F
100
AcDbEntity
  8
0
100
AcDbLine
 10
-8.756747720804302
 20
-7.068420403036361
 30
0.0
 11
-8.67504350712072
 21
-7.127030070980612
 31
0.0
  0
LINE
  5
D3
330
1F
100
AcDbEntity
  8
0
100
AcDbLine
 10
5.898519869666642
 20
-7.127030070980612
 30
0.0
 11
6.308368326048631
 21
-6.809869815691734
 31
0.0
  0
LINE
  5
D4
330
1F
100
AcDbEntity
  8
0
100
AcDbLine
 10
6.308368326048631
 20
-6.809869815691734
 30
0.0
 11
7.999773990475506
 21
-4.60175105962059
 31
0.0
  0
LINE
  5
D5
330
1F
100
AcDbEntity
  8
0
100
AcDbLine
 10
7.999773990475506
 20
-4.60175105962059
 30
0.0
 11
9.072253971946333
 21
-2.020569851283446
 31
0.0
  0
LINE
  5
D6
330
1F
100
AcDbEntity
  8
0
100
AcDbLine
 10
9.072253971946333
 20
-2.020569851283446
 30
0.0
 11
9.444126937257185
 21
0.7663976112498178
 31
0.0
  0
LINE
  5
D7
330
1F
100
AcDbEntity
  8
0
100
AcDbLine
 10
-0.2970533133475692
 20
0.5966058299418691
 30
0.0
 11
-0.3390058284438318
 21
0.875579161587176
 31
0.0
  0
LINE
  5
D8
330
1F
100
AcDbEntity
  8
0
100
AcDbLine
 10
-0.3390058284438318
 20
0.875579161587176
 30
0.0
 11
-0.4519583710327775
 21
1.134539592096356
 31
0.0
  0
LINE
  5
D9
330
1F
100
AcDbEntity
  8
0
100
AcDbLine
 10
-0.4519583710327775
 20
1.134539592096356
 30
0.0
 11
-0.6282979456434581
 21
1.355749363901249
 31
0.0
  0
LINE
  5
DA
330
1F
100
AcDbEntity
  8
0
100
AcDbLine
 10
-0.6282979456434581
 20
1.355749363901249
 30
0.0
 11
-0.8560352369852162
 21
1.524012992296614
 31
0.0
  0
LINE
  5
DB
330
1F
100
AcDbEntity
  8
0
100
AcDbLine
 10
-0.8560352369852162
 20
1.524012992296614
 30
0.0
 11
-1.119614026026547
 21
1.627745145818593
 31
0.0
  0
LINE
  5
DC
330
1F
100
AcDbEntity
  8
0
100
AcDbLine
 10
-1.119614026026547
 20
1.627745145818593
 30
0.0
 11
-1.400980991037617
 21
1.659792061108012
 31
0.0
  0
LINE
  5
DD
330
1F
100
AcDbEntity
  8
0
100
AcDbLine
 10
-1.400980991037617
 20
1.659792061108012
 30
0.0
 11
-1.680840430306714
 21
1.617941876170133
 31
0.0
  0
LINE
  5
DE
330
1F
100
AcDbEntity
  8
0
100
AcDbLine
 10
-1.680840430306714
 20
1.617941876170133
 30
0.0
 11
-1.940001814051728
 21
1.505082901427865
 31
0.0
  0
LINE
  5
DF
330
1F
100
AcDbEntity
  8
0
100
AcDbLine
 10
-1.940001814051728
 20
1.505082901427865
 30
0.0
 11
-2.160719509076656
 21
1.328996990439339
 31
0.0
  0
LINE
  5
E0
330
1F
100
AcDbEntity
  8
0
100
AcDbLine
 10
-2.160719509076656
 20
1.328996990439339
 30
0.0
 11
-2.327924734160593
 21
1.101804758864354
 31
0.0
  0
LINE
  5
E1
330
1F
100
AcDbEntity
  8
0
100
AcDbLine
 10
-2.327924734160593
 20
1.101804758864354
 30
0.0
 11
-2.430259697329626
 21
0.8391071058534241
 31
0.0
  0
LINE
  5
E2
330
1F
100
AcDbEntity
  8
0
100
AcDbLine
 10
-2.430259697329626
 20
0.8391071058534241
 30
0.0
 11
-2.460841547470493
 21
0.5588903325182629
 31
0.0
  0
LINE
  5
E3
330
1F
100
AcDbEntity
  8
0
100
AcDbLine
 10
-2.460841547470493
 20
0.5588903325182629
 30
0.0
 11
-2.417706867343509
 21
0.2802779993230842
 31
0.0
  0
LINE
  5
E4
330
1F
100
AcDbEntity
  8
0
100
AcDbLine
 10
-2.417706867343509
 20
0.2802779993230842
 30
0.0
 11
-2.303913085556307
 21
0.0222205420784941
 31
0.0
  0
LINE
  5
E5
330
1F
100
AcDbEntity
  8
0
100
AcDbLine
 10
-2.303913085556307
 20
0.0222205420784941
 30
0.0
 11
-2.127298607098606
 21
-0.1977862304796038
 31
0.0
  0
LINE
  5
E6
330
1F
100
AcDbEntity
  8
0
100
AcDbLine
 10
-2.127298607098606
 20
-0.1977862304796038
 30
0.0
 11
-1.899926409445748
 21
-0.3648691753893417
 31
0.0
  0
LINE
  5
E7
330
1F
100
AcDbEntity
  8
0
100
AcDbLine
 10
-1.899926409445748
 20
-0.3648691753893417
 30
0.0
 11
-1.637254886836063
 21
-0.4677593255643356
 31
0.0
  0
LINE
  5
E8
330
1F
100
AcDbEntity
  8
0
100
AcDbLine
 10
-1.637254886836063
 20
-0.4677593255643356
 30
0.0
 11
-1.357094259536667
 21
-0.4995285338865431
 31
0.0
  0
LINE
  5
E9
330
1F
100
AcDbEntity
  8
0
100
AcDbLine
 10
-1.357094259536667
 20
-0.4995285338865431
 30
0.0
 11
-1.078416990122954
 21
-0.4580393506526262
 31
0.0
  0
LINE
  5
EA
330
1F
100
AcDbEntity
  8
0
100
AcDbLine
 10
-1.078416990122954
 20
-0.4580393506526262
 30
0.0
 11
-0.8200968451528275
 21
-0.3460833549791673
 31
0.0
  0
LINE
  5
EB
330
1F
100
AcDbEntity
  8
0
100
AcDbLine
 10
-0.8200968451528275
 20
-0.3460833549791673
 30
0.0
 11
-0.5996540487269645
 21
-0.1712004457878223
 31
0.0
  0
LINE
  5
EC
330
1F
100
AcDbEntity
  8
0
100
AcDbLine
 10
-0.5996540487269645
 20
-0.1712004457878223
 30
0.0
 11
-0.4320837251295421
 21
0.0548111055553699
 31
0.0
  0
LINE
  5
ED
330
1F
100
AcDbEntity
  8
0
100
AcDbLine
 10
-0.4320837251295421
 20
0.0548111055553699
 30
0.0
 11
-0.3288414959522344
 21
0.3166667610235341
 31
0.0
  0
LINE
  5
EE
330
1F
100
AcDbEntity
  8
0
100
AcDbLine
 10
-0.3288414959522344
 20
0.3166667610235341
 30
0.0
 11
-0.2970533133475692
 21
0.5966058299418691
 31
0.0
  0
LINE
  5
EF
330
1F
100
AcDbEntity
  8
0
100
AcDbLine
 10
-5.605146482329546
 20
4.021474451544946
 30
0.0
 11
-5.753021098141579
 21
3.777293871898926
 31
0.0
  0
LINE
  5
F0
330
1F
100
AcDbEntity
  8
0
100
AcDbLine
 10
-5.501704847358566
 20
4.12015208208362
 30
0.0
 11
-9.001164676017796
 21
7.127030070980612
 31
0.0
  0
LINE
  5
F1
330
1F
100
AcDbEntity
  8
0
100
AcDbLine
 10
-5.501704847358566
 20
4.12015208208362
 30
0.0
 11
-5.605146482329546
 21
4.021474451544946
 31
0.0
  0
LINE
  5
F2
330
1F
100
AcDbEntity
  8
0
100
AcDbLine
 10
-1.937720639754464
 20
6.009840156408344
 30
0.0
 11
-2.217033676361125
 21
5.943675499706771
 31
0.0
  0
LINE
  5
F3
330
1F
100
AcDbEntity
  8
0
100
AcDbLine
 10
-2.217033676361125
 20
5.943675499706771
 30
0.0
 11
-2.401848638086496
 21
7.127030070980612
 31
0.0
  0
LINE
  5
F4
330
1F
100
AcDbEntity
  8
0
100
AcDbLine
 10
-1.793780519813656
 20
6.005278305412324
 30
0.0
 11
-1.879508807709825
 21
7.127030070980612
 31
0.0
  0
LINE
  5
F5
330
1F
100
AcDbEntity
  8
0
100
AcDbLine
 10
-0.510243651692553
 20
5.964599556897681
 30
0.0
 11
-0.3227767871605067
 21
7.127030070980612
 31
0.0
  0
LINE
  5
F6
330
1F
100
AcDbEntity
  8
0
100
AcDbLine
 10
-0.9398320618912636
 20
5.978214373376488
 30
0.0
 11
-0.8464122575440166
 21
7.127030070980612
 31
0.0
  0
LINE
  5
F7
330
1F
100
AcDbEntity
  8
0
100
AcDbLine
 10
0.7184360055555051
 20
5.590479312058506
 30
0.0
 11
0.386140911417837
 21
5.691659730603123
 31
0.0
  0
LINE
  5
F8
330
1F
100
AcDbEntity
  8
0
100
AcDbLine
 10
1.822635954552457
 20
4.943832253548578
 30
0.0
 11
3.423562443857826
 21
7.127030070980612
 31
0.0
  0
LINE
  5
F9
330
1F
100
AcDbEntity
  8
0
100
AcDbLine
 10
2.163429615253132
 20
4.686477284332007
 30
0.0
 11
4.267598097680338
 21
7.127030070980612
 31
0.0
  0
LINE
  5
FA
330
1F
100
AcDbEntity
  8
0
100
AcDbLine
 10
1.09961831034008
 20
5.396199602626283
 30
0.0
 11
1.047084270445736
 21
5.429068350095535
 31
0.0
  0
LINE
  5
FB
330
1F
100
AcDbEntity
  8
0
100
AcDbLine
 10
0.7184360055555051
 20
5.590479312058506
 30
0.0
 11
1.361358919158019
 21
7.127030070980612
 31
0.0
  0
LINE
  5
FC
330
1F
100
AcDbEntity
  8
0
100
AcDbLine
 10
-1.793780519813656
 20
6.005278305412324
 30
0.0
 11
-1.937720639754464
 21
6.009840156408344
 31
0.0
  0
LINE
  5
FD
330
1F
100
AcDbEntity
  8
0
100
AcDbLine
 10
0.309085945159828
 20
5.715122170688721
 30
0.0
 11
0.3111644397897013
 21
5.721447722148094
 31
0.0
  0
LINE
  5
FE
330
1F
100
AcDbEntity
  8
0
100
AcDbLine
 10
3.833630206889472
 20
2.070544207091918
 30
0.0
 11
3.770241219131748
 21
2.219133765270561
 31
0.0
  0
LINE
  5
FF
330
1F
100
AcDbEntity
  8
0
100
AcDbLine
 10
1.256183321405301
 20
5.345993745132288
 30
0.0
 11
1.104742393397705
 21
5.406160901375966
 31
0.0
  0
LINE
  5
100
330
1F
100
AcDbEntity
  8
0
100
AcDbLine
 10
-2.901201123530417
 20
5.82336570282567
 30
0.0
 11
-3.050338795840138
 21
5.757790950107327
 31
0.0
  0
LINE
  5
101
330
1F
100
AcDbEntity
  8
0
100
AcDbLine
 10
-6.144099471463594
 20
3.209318369363041
 30
0.0
 11
-6.201635783559241
 21
3.05795459031858
 31
0.0
  0
LINE
  5
102
330
1F
100
AcDbEntity
  8
0
100
AcDbLine
 10
-6.559967459121776
 20
-0.9059880863437321
 30
0.0
 11
-6.493872820796226
 21
-1.052690577026785
 31
0.0
  0
LINE
  5
103
330
1F
100
AcDbEntity
  8
0
100
AcDbLine
 10
-3.963740104831452
 20
-4.099263132808819
 30
0.0
 11
-3.814608802175654
 21
-4.157135860475814
 31
0.0
  0
LINE
  5
104
330
1F
100
AcDbEntity
  8
0
100
AcDbLine
 10
0.1112420135180879
 20
-4.557663623449596
 30
0.0
 11
0.2576762375379937
 21
-4.494798790134126
 31
0.0
  0
LINE
  5
105
330
1F
100
AcDbEntity
  8
0
100
AcDbLine
 10
3.335366453357184
 20
-2.025793970104209
 30
0.0
 11
3.395214828359577
 21
-1.877546642085976
 31
0.0
  0
LINE
  5
106
330
1F
100
AcDbEntity
  8
0
100
AcDbLine
 10
4.016540064737392
 20
0.5496177604683127
 30
0.0
 11
8.826017794108548
 21
0.5245435468077758
 31
0.0
  0
LINE
  5
107
330
1F
100
AcDbEntity
  8
0
100
AcDbLine
 10
3.862854705519446
 20
-0.7060944240906096
 30
0.0
 11
8.507216107480616
 21
-1.84359972721807
 31
0.0
  0
LINE
  5
108
330
1F
100
AcDbEntity
  8
0
100
AcDbLine
 10
3.709189582016961
 20
-1.099815946924061
 30
0.0
 11
8.243855342831374
 21
-2.594887020775885
 31
0.0
  0
LINE
  5
109
330
1F
100
AcDbEntity
  8
0
100
AcDbLine
 10
3.395214828359577
 20
-1.877546642085976
 30
0.0
 11
7.654407552642485
 21
-4.067978877598656
 31
0.0
  0
LINE
  5
10A
330
1F
100
AcDbEntity
  8
0
100
AcDbLine
 10
3.177088931401166
 20
-2.236173208559995
 30
0.0
 11
7.207211755593036
 21
-4.725253783335442
 31
0.0
  0
LINE
  5
10B
330
1F
100
AcDbEntity
  8
0
100
AcDbLine
 10
2.397684865445175
 20
-3.219710590586305
 30
0.0
 11
5.715382851167933
 21
-6.55566663961601
 31
0.0
  0
LINE
  5
10C
330
1F
100
AcDbEntity
  8
0
100
AcDbLine
 10
1.409303046387802
 20
-3.995144555953698
 30
0.0
 11
3.318950629795427
 21
-7.127030070980612
 31
0.0
  0
LINE
  5
10D
330
1F
100
AcDbEntity
  8
0
100
AcDbLine
 10
1.02505680294145
 20
-4.165359059384802
 30
0.0
 11
2.52618130446069
 21
-7.127030070980612
 31
0.0
  0
LINE
  5
10E
330
1F
100
AcDbEntity
  8
0
100
AcDbLine
 10
0.2576762375379937
 20
-4.494798790134126
 30
0.0
 11
1.106970012962452
 21
-7.127030070980612
 31
0.0
  0
LINE
  5
10F
330
1F
100
AcDbEntity
  8
0
100
AcDbLine
 10
-0.148274084749638
 20
-4.59596151470206
 30
0.0
 11
0.4538131832848831
 21
-7.127030070980612
 31
0.0
  0
LINE
  5
110
330
1F
100
AcDbEntity
  8
0
100
AcDbLine
 10
-1.391850430241284
 20
-4.747924913193232
 30
0.0
 11
-1.397595865533675
 21
-7.127030070980612
 31
0.0
  0
LINE
  5
111
330
1F
100
AcDbEntity
  8
0
100
AcDbLine
 10
-2.640635520984325
 20
-4.60755163459348
 30
0.0
 11
-3.253655290617867
 21
-7.127030070980612
 31
0.0
  0
LINE
  5
112
330
1F
100
AcDbEntity
  8
0
100
AcDbLine
 10
-3.034309323227
 20
-4.459943241888412
 30
0.0
 11
-3.910679658275801
 21
-7.127030070980612
 31
0.0
  0
LINE
  5
113
330
1F
100
AcDbEntity
  8
0
100
AcDbLine
 10
-3.814608802175654
 20
-4.157135860475814
 30
0.0
 11
-5.342319695081724
 21
-7.127030070980612
 31
0.0
  0
LINE
  5
114
330
1F
100
AcDbEntity
  8
0
100
AcDbLine
 10
-4.176214182801355
 20
-3.944803067989229
 30
0.0
 11
-6.144440992636664
 21
-7.127030070980612
 31
0.0
  0
LINE
  5
115
330
1F
100
AcDbEntity
  8
0
100
AcDbLine
 10
-5.174215707222808
 20
-3.180539552006032
 30
0.0
 11
-8.508717314700254
 21
-6.482585842340172
 31
0.0
  0
LINE
  5
116
330
1F
100
AcDbEntity
  8
0
100
AcDbLine
 10
-6.148436757722965
 20
-1.819414355360875
 30
0.0
 11
-10.38718621899649
 21
-3.949843027266741
 31
0.0
  0
LINE
  5
117
330
1F
100
AcDbEntity
  8
0
100
AcDbLine
 10
-6.493872820796226
 20
-1.052690577026785
 30
0.0
 11
-10.58937275530558
 21
-2.358186241580019
 31
0.0
  0
LINE
  5
118
330
1F
100
AcDbEntity
  8
0
100
AcDbLine
 10
-6.602574121260664
 20
-0.645708103385576
 30
0.0
 11
-10.58937275530558
 21
-1.579486453931364
 31
0.0
  0
LINE
  5
119
330
1F
100
AcDbEntity
  8
0
100
AcDbLine
 10
-6.775139384605714
 20
0.6058801846847861
 30
0.0
 11
-10.58937275530558
 21
0.6257656915672309
 31
0.0
  0
LINE
  5
11A
330
1F
100
AcDbEntity
  8
0
100
AcDbLine
 10
-6.648510184873653
 20
1.868367869235818
 30
0.0
 11
-10.58937275530558
 21
2.833570980016408
 31
0.0
  0
LINE
  5
11B
330
1F
100
AcDbEntity
  8
0
100
AcDbLine
 10
-6.502329692603886
 20
2.26690343060844
 30
0.0
 11
-10.58937275530558
 21
3.614394113038505
 31
0.0
  0
LINE
  5
11C
330
1F
100
AcDbEntity
  8
0
100
AcDbLine
 10
-6.201635783559241
 20
3.05795459031858
 30
0.0
 11
-10.58740162806349
 21
5.31348128401389
 31
0.0
  0
LINE
  5
11D
330
1F
100
AcDbEntity
  8
0
100
AcDbLine
 10
-5.988127636929986
 20
3.424439015688027
 30
0.0
 11
-10.15559899123365
 21
5.998348657265754
 31
0.0
  0
LINE
  5
11E
330
1F
100
AcDbEntity
  8
0
100
AcDbLine
 10
-4.220439511653264
 20
5.23782037645396
 30
0.0
 11
-5.372373294160035
 21
7.127030070980612
 31
0.0
  0
LINE
  5
11F
330
1F
100
AcDbEntity
  8
0
100
AcDbLine
 10
-3.830607466051899
 20
5.414712475630445
 30
0.0
 11
-4.698496534992616
 21
7.127030070980612
 31
0.0
  0
LINE
  5
120
330
1F
100
AcDbEntity
  8
0
100
AcDbLine
 10
-3.050338795840138
 20
5.757790950107327
 30
0.0
 11
-3.492126062364618
 21
7.127030070980612
 31
0.0
  0
LINE
  5
121
330
1F
100
AcDbEntity
  8
0
100
AcDbLine
 10
-2.63631696218538
 20
5.863331395290321
 30
0.0
 11
-2.936923945499935
 21
7.127030070980612
 31
0.0
  0
LINE
  5
122
330
1F
100
AcDbEntity
  8
0
100
AcDbLine
 10
1.104742393397705
 20
5.406160901375966
 30
0.0
 11
1.989955936146918
 21
7.127030070980612
 31
0.0
  0
LINE
  5
123
330
1F
100
AcDbEntity
  8
0
100
AcDbLine
 10
3.265556933294758
 20
3.389490478380808
 30
0.0
 11
7.446383806993156
 21
5.920504483085217
 31
0.0
  0
LINE
  5
124
330
1F
100
AcDbEntity
  8
0
100
AcDbLine
 10
3.437695648033302
 20
2.998650858565187
 30
0.0
 11
7.799213608918402
 21
5.190783939747648
 31
0.0
  0
LINE
  5
125
330
1F
100
AcDbEntity
  8
0
100
AcDbLine
 10
3.770241219131748
 20
2.219133765270561
 30
0.0
 11
8.437764980005273
 21
3.706969714839339
 31
0.0
  0
LINE
  5
126
330
1F
100
AcDbEntity
  8
0
100
AcDbLine
 10
3.870872733879696
 20
1.807357332477076
 30
0.0
 11
8.588033468598862
 21
2.912199330894247
 31
0.0
  0
LINE
  5
127
330
1F
100
AcDbEntity
  8
0
100
AcDbLine
 10
3.139039560146007
 20
3.550465698133485
 30
0.0
 11
3.034358674465039
 21
3.748830741786111
 31
0.0
  0
LINE
  5
128
330
1F
100
AcDbEntity
  8
0
100
AcDbLine
 10
3.469141253838432
 20
2.924939495779198
 30
0.0
 11
3.43180485694466
 21
2.995690100834548
 31
0.0
  0
LINE
  5
129
330
1F
100
AcDbEntity
  8
0
100
AcDbLine
 10
-0.2946087130437496
 20
5.898940948840305
 30
0.0
 11
-0.510243651692553
 21
5.964599556897681
 31
0.0
  0
LINE
  5
12A
330
1F
100
AcDbEntity
  8
0
100
AcDbLine
 10
-3.756977383485551
 20
5.447087088846185
 30
0.0
 11
-3.827594417171946
 21
5.408767825792993
 31
0.0
  0
LINE
  5
12B
330
1F
100
AcDbEntity
  8
0
100
AcDbLine
 10
-6.473978245821252
 20
2.341489061318514
 30
0.0
 11
-6.496073183707978
 21
2.264840670976847
 31
0.0
  0
LINE
  5
12C
330
1F
100
AcDbEntity
  8
0
100
AcDbLine
 10
-6.181007870022456
 20
-1.747120090353939
 30
0.0
 11
-6.142660872750717
 21
-1.816511350344177
 31
0.0
  0
LINE
  5
12D
330
1F
100
AcDbEntity
  8
0
100
AcDbLine
 10
-3.107946914816655
 20
-4.431367026109271
 30
0.0
 11
-3.032315569229969
 21
-4.453875584399935
 31
0.0
  0
LINE
  5
12E
330
1F
100
AcDbEntity
  8
0
100
AcDbLine
 10
0.9525526581985743
 20
-4.196485396171425
 30
0.0
 11
1.022159483641309
 21
-4.159642740336121
 31
0.0
  0
LINE
  5
12F
330
1F
100
AcDbEntity
  8
0
100
AcDbLine
 10
3.679499777438521
 20
-1.173359033063784
 30
0.0
 11
3.703018604277131
 21
-1.0977813867596
 31
0.0
  0
LINE
  5
130
330
1F
100
AcDbEntity
  8
0
100
AcDbLine
 10
-6.668867091076007
 20
1.665410388414495
 30
0.0
 11
-6.730454300667755
 21
1.451761429315761
 31
0.0
  0
LINE
  5
131
330
1F
100
AcDbEntity
  8
0
100
AcDbLine
 10
-5.84273141511567
 20
-2.359252228489046
 30
0.0
 11
-5.735815118671075
 21
-2.552723870380668
 31
0.0
  0
LINE
  5
132
330
1F
100
AcDbEntity
  8
0
100
AcDbLine
 10
1.567638818516572
 20
-3.870922384648992
 30
0.0
 11
1.762538993807291
 21
-3.767762385111543
 31
0.0
  0
LINE
  5
133
330
1F
100
AcDbEntity
  8
0
100
AcDbLine
 10
3.887454540152854
 20
-0.5050973203684802
 30
0.0
 11
3.953409087800765
 21
-0.2931526724270924
 31
0.0
  0
LINE
  5
134
330
1F
100
AcDbEntity
  8
0
100
AcDbLine
 10
-4.380239592982737
 20
5.108883297068241
 30
0.0
 11
-4.577377826735002
 21
5.001909222363449
 31
0.0
  0
LINE
  5
135
330
1F
100
AcDbEntity
  8
0
100
AcDbLine
 10
-2.440266178783518
 20
-4.630074726600276
 30
0.0
 11
-2.229002022083894
 21
-4.692948810737207
 31
0.0
  0
LINE
  5
136
330
1F
100
AcDbEntity
  8
0
100
AcDbLine
 10
-1.365841437392048
 20
6.022038699243573
 30
0.0
 11
-1.36317293137659
 21
7.127030070980612
 31
0.0
  0
LINE
  5
137
330
1F
100
AcDbEntity
  8
0
100
AcDbLine
 10
-0.0899987951809816
 20
5.875428765141478
 30
0.0
 11
0.2145310365086535
 21
7.127030070980612
 31
0.0
  0
LINE
  5
138
330
1F
100
AcDbEntity
  8
0
100
AcDbLine
 10
-5.215262507895546
 20
4.435132601992242
 30
0.0
 11
-7.892426918749441
 21
7.127030070980612
 31
0.0
  0
LINE
  5
139
330
1F
100
AcDbEntity
  8
0
100
AcDbLine
 10
0.386140911417837
 20
5.691659730603123
 30
0.0
 11
0.309085945159828
 21
5.715122170688721
 31
0.0
  0
LINE
  5
13A
330
1F
100
AcDbEntity
  8
0
100
AcDbLine
 10
2.475502031792124
 20
4.394722077970172
 30
0.0
 11
5.234665469774825
 21
7.127030070980612
 31
0.0
  0
LINE
  5
13B
330
1F
100
AcDbEntity
  8
0
100
AcDbLine
 10
1.470966152432794
 20
5.185552063718964
 30
0.0
 11
2.671782141048865
 21
7.127030070980612
 31
0.0
  0
LINE
  5
13C
330
1F
100
AcDbEntity
  8
0
100
AcDbLine
 10
0.3111644397897013
 20
5.721447722148094
 30
0.0
 11
0.77302067204605
 21
7.127030070980612
 31
0.0
  0
LINE
  5
13D
330
1F
100
AcDbEntity
  8
0
100
AcDbLine
 10
3.870872733879696
 20
1.807357332477076
 30
0.0
 11
3.833630206889472
 21
2.070544207091918
 31
0.0
  0
LINE
  5
13E
330
1F
100
AcDbEntity
  8
0
100
AcDbLine
 10
3.469141253838432
 20
2.924939495779198
 30
0.0
 11
3.437695648033302
 21
2.998650858565187
 31
0.0
  0
LINE
  5
13F
330
1F
100
AcDbEntity
  8
0
100
AcDbLine
 10
3.770241219131748
 20
2.219133765270561
 30
0.0
 11
3.746101086510522
 21
2.275720433830049
 31
0.0
  0
LINE
  5
140
330
1F
100
AcDbEntity
  8
0
100
AcDbLine
 10
2.74321958556922
 20
4.062272528135761
 30
0.0
 11
2.701418375196812
 21
4.107275918440954
 31
0.0
  0
LINE
  5
141
330
1F
100
AcDbEntity
  8
0
100
AcDbLine
 10
3.265556933294758
 20
3.389490478380808
 30
0.0
 11
3.139039560146007
 21
3.550465698133485
 31
0.0
  0
LINE
  5
142
330
1F
100
AcDbEntity
  8
0
100
AcDbLine
 10
1.470966152432794
 20
5.185552063718964
 30
0.0
 11
1.256183321405301
 21
5.345993745132288
 31
0.0
  0
LINE
  5
143
330
1F
100
AcDbEntity
  8
0
100
AcDbLine
 10
0.386140911417837
 20
5.691659730603123
 30
0.0
 11
0.3111644397897013
 21
5.721447722148094
 31
0.0
  0
LINE
  5
144
330
1F
100
AcDbEntity
  8
0
100
AcDbLine
 10
1.104742393397705
 20
5.406160901375966
 30
0.0
 11
1.047084270445736
 21
5.429068350095535
 31
0.0
  0
LINE
  5
145
330
1F
100
AcDbEntity
  8
0
100
AcDbLine
 10
-0.9398320618912636
 20
5.978214373376488
 30
0.0
 11
-1.00146861022488
 21
5.980167801993339
 31
0.0
  0
LINE
  5
146
330
1F
100
AcDbEntity
  8
0
100
AcDbLine
 10
-0.0899987951809816
 20
5.875428765141478
 30
0.0
 11
-0.2946087130437496
 21
5.898940948840305
 31
0.0
  0
LINE
  5
147
330
1F
100
AcDbEntity
  8
0
100
AcDbLine
 10
-3.050338795840138
 20
5.757790950107327
 30
0.0
 11
-3.107100043998594
 21
5.732833441019614
 31
0.0
  0
LINE
  5
148
330
1F
100
AcDbEntity
  8
0
100
AcDbLine
 10
-4.220439511653264
 20
5.23782037645396
 30
0.0
 11
-4.380239592982737
 21
5.108883297068241
 31
0.0
  0
LINE
  5
149
330
1F
100
AcDbEntity
  8
0
100
AcDbLine
 10
-6.201635783559241
 20
3.05795459031858
 30
0.0
 11
-6.223528593156128
 21
3.000360033528235
 31
0.0
  0
LINE
  5
14A
330
1F
100
AcDbEntity
  8
0
100
AcDbLine
 10
-6.648510184873653
 20
1.868367869235818
 30
0.0
 11
-6.668867091076007
 21
1.665410388414495
 31
0.0
  0
LINE
  5
14B
330
1F
100
AcDbEntity
  8
0
100
AcDbLine
 10
-5.970716226420553
 20
-2.202019867474343
 30
0.0
 11
-5.84273141511567
 21
-2.359252228489046
 31
0.0
  0
LINE
  5
14C
330
1F
100
AcDbEntity
  8
0
100
AcDbLine
 10
-3.814608802175654
 20
-4.157135860475814
 30
0.0
 11
-3.757848944770423
 21
-4.179162408299888
 31
0.0
  0
LINE
  5
14D
330
1F
100
AcDbEntity
  8
0
100
AcDbLine
 10
-2.640635520984325
 20
-4.60755163459348
 30
0.0
 11
-2.440266178783518
 21
-4.630074726600276
 31
0.0
  0
LINE
  5
14E
330
1F
100
AcDbEntity
  8
0
100
AcDbLine
 10
0.9525526581985743
 20
-4.196485396171425
 30
0.0
 11
1.02505680294145
 21
-4.165359059384802
 31
0.0
  0
LINE
  5
14F
330
1F
100
AcDbEntity
  8
0
100
AcDbLine
 10
0.2576762375379937
 20
-4.494798790134126
 30
0.0
 11
0.3134287787838136
 21
-4.470863987762723
 31
0.0
  0
LINE
  5
150
330
1F
100
AcDbEntity
  8
0
100
AcDbLine
 10
2.115146200066751
 20
-3.441376017286347
 30
0.0
 11
2.397684865445175
 21
-3.219710590586305
 31
0.0
  0
LINE
  5
151
330
1F
100
AcDbEntity
  8
0
100
AcDbLine
 10
2.07087789908321
 20
-3.482352406059251
 30
0.0
 11
2.115146200066751
 21
-3.441376017286347
 31
0.0
  0
LINE
  5
152
330
1F
100
AcDbEntity
  8
0
100
AcDbLine
 10
1.409303046387802
 20
-3.995144555953698
 30
0.0
 11
1.567638818516572
 21
-3.870922384648992
 31
0.0
  0
LINE
  5
153
330
1F
100
AcDbEntity
  8
0
100
AcDbLine
 10
3.177088931401166
 20
-2.236173208559995
 30
0.0
 11
3.335366453357184
 21
-2.025793970104209
 31
0.0
  0
LINE
  5
154
330
1F
100
AcDbEntity
  8
0
100
AcDbLine
 10
3.679499777438521
 20
-1.173359033063784
 30
0.0
 11
3.709189582016961
 21
-1.099815946924061
 31
0.0
  0
LINE
  5
155
330
1F
100
AcDbEntity
  8
0
100
AcDbLine
 10
3.395214828359577
 20
-1.877546642085976
 30
0.0
 11
3.418006664104629
 21
-1.821090159354247
 31
0.0
  0
LINE
  5
156
330
1F
100
AcDbEntity
  8
0
100
AcDbLine
 10
3.970169959464092
 20
0.1296846882441816
 30
0.0
 11
3.972577085395284
 21
0.1904108125172962
 31
0.0
  0
LINE
  5
157
330
1F
100
AcDbEntity
  8
0
100
AcDbLine
 10
3.862854705519446
 20
-0.7060944240906096
 30
0.0
 11
3.887454540152854
 21
-0.5050973203684802
 31
0.0
  0
LINE
  5
158
330
1F
100
AcDbEntity
  8
0
100
AcDbLine
 10
2.701418375196812
 20
4.107275918440954
 30
0.0
 11
2.475502031792124
 21
4.394722077970172
 31
0.0
  0
LINE
  5
159
330
1F
100
AcDbEntity
  8
0
100
AcDbLine
 10
-1.00146861022488
 20
5.980167801993339
 30
0.0
 11
-1.365841437392048
 21
6.022038699243573
 31
0.0
  0
LINE
  5
15A
330
1F
100
AcDbEntity
  8
0
100
AcDbLine
 10
-2.63631696218538
 20
5.863331395290321
 30
0.0
 11
-2.901201123530417
 21
5.82336570282567
 31
0.0
  0
LINE
  5
15B
330
1F
100
AcDbEntity
  8
0
100
AcDbLine
 10
-0.148274084749638
 20
-4.59596151470206
 30
0.0
 11
0.1112420135180879
 21
-4.557663623449596
 31
0.0
  0
LINE
  5
15C
330
1F
100
AcDbEntity
  8
0
100
AcDbLine
 10
3.972577085395284
 20
0.1904108125172962
 30
0.0
 11
4.016540064737392
 21
0.5496177604683127
 31
0.0
  0
LINE
  5
15D
330
1F
100
AcDbEntity
  8
0
100
AcDbLine
 10
-3.756977383485551
 20
5.447087088846185
 30
0.0
 11
-3.830607466051899
 21
5.414712475630445
 31
0.0
  0
LINE
  5
15E
330
1F
100
AcDbEntity
  8
0
100
AcDbLine
 10
-4.887127180331705
 20
4.706425375048485
 30
0.0
 11
-4.931537606318419
 21
4.664060271202231
 31
0.0
  0
LINE
  5
15F
330
1F
100
AcDbEntity
  8
0
100
AcDbLine
 10
-5.988127636929986
 20
3.424439015688027
 30
0.0
 11
-6.144099471463594
 21
3.209318369363041
 31
0.0
  0
LINE
  5
160
330
1F
100
AcDbEntity
  8
0
100
AcDbLine
 10
-6.473978245821252
 20
2.341489061318514
 30
0.0
 11
-6.502329692603886
 21
2.26690343060844
 31
0.0
  0
LINE
  5
161
330
1F
100
AcDbEntity
  8
0
100
AcDbLine
 10
-6.737971642156921
 20
1.026632854991051
 30
0.0
 11
-6.739049111960461
 21
0.9656986534358598
 31
0.0
  0
LINE
  5
162
330
1F
100
AcDbEntity
  8
0
100
AcDbLine
 10
-6.602574121260664
 20
-0.645708103385576
 30
0.0
 11
-6.559967459121776
 21
-0.9059880863437321
 31
0.0
  0
LINE
  5
163
330
1F
100
AcDbEntity
  8
0
100
AcDbLine
 10
-6.181007870022456
 20
-1.747120090353939
 30
0.0
 11
-6.148436757722965
 21
-1.819414355360875
 31
0.0
  0
LINE
  5
164
330
1F
100
AcDbEntity
  8
0
100
AcDbLine
 10
-5.443259717232286
 20
-2.857802352673698
 30
0.0
 11
-5.401315875330683
 21
-2.90154163612539
 31
0.0
  0
LINE
  5
165
330
1F
100
AcDbEntity
  8
0
100
AcDbLine
 10
-4.176214182801355
 20
-3.944803067989229
 30
0.0
 11
-3.963740104831452
 21
-4.099263132808819
 31
0.0
  0
LINE
  5
166
330
1F
100
AcDbEntity
  8
0
100
AcDbLine
 10
-3.107946914816655
 20
-4.431367026109271
 30
0.0
 11
-3.034309323227
 21
-4.459943241888412
 31
0.0
  0
LINE
  5
167
330
1F
100
AcDbEntity
  8
0
100
AcDbLine
 10
-1.808653358503831
 20
-4.705982097975228
 30
0.0
 11
-1.74834627007633
 21
-4.707851973328945
 31
0.0
  0
LINE
  5
168
330
1F
100
AcDbEntity
  8
0
100
AcDbLine
 10
-4.931537606318419
 20
4.664060271202231
 30
0.0
 11
-5.215262507895546
 21
4.435132601992242
 31
0.0
  0
LINE
  5
169
330
1F
100
AcDbEntity
  8
0
100
AcDbLine
 10
-6.739049111960461
 20
0.9656986534358598
 30
0.0
 11
-6.775139384605714
 21
0.6058801846847861
 31
0.0
  0
LINE
  5
16A
330
1F
100
AcDbEntity
  8
0
100
AcDbLine
 10
-5.401315875330683
 20
-2.90154163612539
 30
0.0
 11
-5.174215707222808
 21
-3.180539552006032
 31
0.0
  0
LINE
  5
16B
330
1F
100
AcDbEntity
  8
0
100
AcDbLine
 10
-1.74834627007633
 20
-4.707851973328945
 30
0.0
 11
-1.391850430241284
 21
-4.747924913193232
 31
0.0
  0
LINE
  5
16C
330
1F
100
AcDbEntity
  8
0
100
AcDbLine
 10
-5.970716226420553
 20
-2.202019867474343
 30
0.0
 11
-10.0155861102462
 21
-4.650727415633031
 31
0.0
  0
LINE
  5
16D
330
1F
100
AcDbEntity
  8
0
100
AcDbLine
 10
8.826017794108548
 20
0.5245435468077758
 30
0.0
 11
8.899962001648767
 21
0.5241580386584562
 31
0.0
  0
LINE
  5
16E
330
1F
100
AcDbEntity
  8
0
100
AcDbLine
 10
8.765613841516268
 20
-0.2719970188872333
 30
0.0
 11
8.849497652317089
 21
-0.2790233949958884
 31
0.0
  0
LINE
  5
16F
330
1F
100
AcDbEntity
  8
0
100
AcDbLine
 10
8.705158163105272
 20
-1.069219687510128
 30
0.0
 11
8.736349413545048
 21
-1.074313917075274
 31
0.0
  0
LINE
  5
170
330
1F
100
AcDbEntity
  8
0
100
AcDbLine
 10
8.507216107480616
 20
-1.84359972721807
 30
0.0
 11
8.561513174203839
 21
-1.856898261934913
 31
0.0
  0
LINE
  5
171
330
1F
100
AcDbEntity
  8
0
100
AcDbLine
 10
8.243855342831374
 20
-2.594887020775885
 30
0.0
 11
8.326346990876454
 21
-2.622084367467347
 31
0.0
  0
LINE
  5
172
330
1F
100
AcDbEntity
  8
0
100
AcDbLine
 10
7.981306813812732
 20
-3.343857255794275
 30
0.0
 11
8.032556060374878
 21
-3.365328722298959
 31
0.0
  0
LINE
  5
173
330
1F
100
AcDbEntity
  8
0
100
AcDbLine
 10
7.654407552642485
 20
-4.067978877598656
 30
0.0
 11
7.68217622725826
 21
-4.082259846775998
 31
0.0
  0
LINE
  5
174
330
1F
100
AcDbEntity
  8
0
100
AcDbLine
 10
7.207211755593036
 20
-4.725253783335442
 30
0.0
 11
7.277556257897402
 21
-4.768699887056404
 31
0.0
  0
LINE
  5
175
330
1F
100
AcDbEntity
  8
0
100
AcDbLine
 10
6.763060322126663
 20
-5.378054175223126
 30
0.0
 11
6.82133909813994
 21
-5.420684329202404
 31
0.0
  0
LINE
  5
176
330
1F
100
AcDbEntity
  8
0
100
AcDbLine
 10
5.715382851167933
 20
-6.55566663961601
 30
0.0
 11
5.766037897038933
 21
-6.606600451980592
 31
0.0
  0
LINE
  5
177
330
1F
100
AcDbEntity
  8
0
100
AcDbLine
 10
5.120543082933767
 20
-7.071460233993171
 30
0.0
 11
5.167760777485566
 21
-7.127030070980612
 31
0.0
  0
LINE
  5
178
330
1F
100
AcDbEntity
  8
0
100
AcDbLine
 10
-8.508717314700254
 20
-6.482585842340172
 30
0.0
 11
-8.559632587510585
 21
-6.533005547440301
 31
0.0
  0
LINE
  5
179
330
1F
100
AcDbEntity
  8
0
100
AcDbLine
 10
-9.044784318798694
 20
-5.902190423060549
 30
0.0
 11
-9.107434070892518
 21
-5.955148594664916
 31
0.0
  0
LINE
  5
17A
330
1F
100
AcDbEntity
  8
0
100
AcDbLine
 10
-9.584366523949535
 20
-5.317989123969045
 30
0.0
 11
-9.609524552606569
 21
-5.336065697507606
 31
0.0
  0
LINE
  5
17B
330
1F
100
AcDbEntity
  8
0
100
AcDbLine
 10
-10.0155861102462
 20
-4.650727415633031
 30
0.0
 11
-10.06274485073548
 21
-4.679276656304447
 31
0.0
  0
LINE
  5
17C
330
1F
100
AcDbEntity
  8
0
100
AcDbLine
 10
-10.38718621899649
 20
-3.949843027266741
 30
0.0
 11
-10.4641915421975
 21
-3.988546505718464
 31
0.0
  0
LINE
  5
17D
330
1F
100
AcDbEntity
  8
0
100
AcDbLine
 10
-10.15559899123365
 20
5.998348657265754
 30
0.0
 11
-10.22911138460439
 21
6.043751310814208
 31
0.0
  0
LINE
  5
17E
330
1F
100
AcDbEntity
  8
0
100
AcDbLine
 10
-9.724379973505336
 20
6.68229037224975
 30
0.0
 11
-9.785616979135783
 21
6.72708443207439
 31
0.0
  0
LINE
  5
17F
330
1F
100
AcDbEntity
  8
0
100
AcDbLine
 10
7.029193329633849
 20
6.619203591845479
 30
0.0
 11
7.055612347016856
 21
6.638186212346049
 31
0.0
  0
LINE
  5
180
330
1F
100
AcDbEntity
  8
0
100
AcDbLine
 10
7.446383806993156
 20
5.920504483085217
 30
0.0
 11
7.495632517704849
 21
5.950318962443213
 31
0.0
  0
LINE
  5
181
330
1F
100
AcDbEntity
  8
0
100
AcDbLine
 10
7.799213608918402
 20
5.190783939747648
 30
0.0
 11
7.879165797810197
 21
5.230968535971781
 31
0.0
  0
LINE
  5
182
330
1F
100
AcDbEntity
  8
0
100
AcDbLine
 10
8.151003013542212
 20
4.463215140054995
 30
0.0
 11
8.204026061548113
 21
4.48483313733379
 31
0.0
  0
LINE
  5
183
330
1F
100
AcDbEntity
  8
0
100
AcDbLine
 10
8.437764980005273
 20
3.706969714839339
 30
0.0
 11
8.468427744898
 21
3.716743883382946
 31
0.0
  0
LINE
  5
184
330
1F
100
AcDbEntity
  8
0
100
AcDbLine
 10
8.588033468598862
 20
2.912199330894247
 30
0.0
 11
8.670991116898763
 21
2.931629470990355
 31
0.0
  0
LINE
  5
185
330
1F
100
AcDbEntity
  8
0
100
AcDbLine
 10
8.737202140964412
 20
2.123245877525075
 30
0.0
 11
8.810744279213765
 21
2.134481258774046
 31
0.0
  0
LINE
  5
186
330
1F
100
AcDbEntity
  8
0
100
AcDbLine
 10
3.986821849402812
 20
0.5497726963933584
 30
0.0
 11
4.016540064737392
 21
0.5496177604683127
 31
0.0
  0
LINE
  5
187
330
1F
100
AcDbEntity
  8
0
100
AcDbLine
 10
3.161856492082803
 20
-2.226765364068131
 30
0.0
 11
3.177088931401166
 21
-2.236173208559995
 31
0.0
  0
LINE
  5
188
330
1F
100
AcDbEntity
  8
0
100
AcDbLine
 10
2.377042716829639
 20
-3.198954843428086
 30
0.0
 11
2.397684865445175
 21
-3.219710590586305
 31
0.0
  0
LINE
  5
189
330
1F
100
AcDbEntity
  8
0
100
AcDbLine
 10
1.39067259875928
 20
-3.964590002551825
 30
0.0
 11
1.409303046387802
 21
-3.995144555953698
 31
0.0
  0
LINE
  5
18A
330
1F
100
AcDbEntity
  8
0
100
AcDbLine
 10
-0.1523688521350477
 20
-4.578747835681212
 30
0.0
 11
-0.148274084749638
 21
-4.59596151470206
 31
0.0
  0
LINE
  5
18B
330
1F
100
AcDbEntity
  8
0
100
AcDbLine
 10
-1.391780354740826
 20
-4.718907619264121
 30
0.0
 11
-1.391850430241284
 21
-4.747924913193232
 31
0.0
  0
LINE
  5
18C
330
1F
100
AcDbEntity
  8
0
100
AcDbLine
 10
-2.632216205486707
 20
-4.572948698609757
 30
0.0
 11
-2.640635520984325
 21
-4.60755163459348
 31
0.0
  0
LINE
  5
18D
330
1F
100
AcDbEntity
  8
0
100
AcDbLine
 10
-4.166894922651413
 20
-3.929735698136776
 30
0.0
 11
-4.176214182801355
 21
-3.944803067989229
 31
0.0
  0
LINE
  5
18E
330
1F
100
AcDbEntity
  8
0
100
AcDbLine
 10
-5.153470490266844
 20
-3.159996252060392
 30
0.0
 11
-5.174215707222808
 21
-3.180539552006032
 31
0.0
  0
LINE
  5
18F
330
1F
100
AcDbEntity
  8
0
100
AcDbLine
 10
-6.483458288491797
 20
-1.049370804840499
 30
0.0
 11
-6.493872820796226
 21
-1.052690577026785
 31
0.0
  0
LINE
  5
190
330
1F
100
AcDbEntity
  8
0
100
AcDbLine
 10
-6.585053036641085
 20
-0.6416043572480444
 30
0.0
 11
-6.602574121260664
 21
-0.645708103385576
 31
0.0
  0
LINE
  5
191
330
1F
100
AcDbEntity
  8
0
100
AcDbLine
 10
-6.612877579255924
 20
1.85964066772272
 30
0.0
 11
-6.648510184873653
 21
1.868367869235818
 31
0.0
  0
LINE
  5
192
330
1F
100
AcDbEntity
  8
0
100
AcDbLine
 10
-5.972538942661105
 20
3.414811141356877
 30
0.0
 11
-5.988127636929986
 21
3.424439015688027
 31
0.0
  0
LINE
  5
193
330
1F
100
AcDbEntity
  8
0
100
AcDbLine
 10
-4.201094386533871
 20
5.206093728210393
 30
0.0
 11
-4.220439511653264
 21
5.23782037645396
 31
0.0
  0
LINE
  5
194
330
1F
100
AcDbEntity
  8
0
100
AcDbLine
 10
-2.632043498845061
 20
5.845366510029835
 30
0.0
 11
-2.63631696218538
 21
5.863331395290321
 31
0.0
  0
LINE
  5
195
330
1F
100
AcDbEntity
  8
0
100
AcDbLine
 10
3.234053616825021
 20
3.370418812036343
 30
0.0
 11
3.265556933294758
 21
3.389490478380808
 31
0.0
  0
LINE
  5
196
330
1F
100
AcDbEntity
  8
0
100
AcDbLine
 10
3.853175226904105
 20
1.803212265121265
 30
0.0
 11
3.870872733879696
 21
1.807357332477076
 31
0.0
  0
LINE
  5
197
330
1F
100
AcDbEntity
  8
0
100
AcDbLine
 10
-1.365914660363412
 20
5.991718081217065
 30
0.0
 11
-1.365841437392048
 21
6.022038699243573
 31
0.0
  0
LINE
  5
198
330
1F
100
AcDbEntity
  8
0
100
AcDbLine
 10
-0.0987857429389307
 20
5.839314880248343
 30
0.0
 11
-0.0899987951809816
 21
5.875428765141478
 31
0.0
  0
LINE
  5
199
330
1F
100
AcDbEntity
  8
0
100
AcDbLine
 10
-5.19396555220099
 20
4.41371844419942
 30
0.0
 11
-5.215262507895546
 21
4.435132601992242
 31
0.0
  0
LINE
  5
19A
330
1F
100
AcDbEntity
  8
0
100
AcDbLine
 10
2.45410568545419
 20
4.373533986204535
 30
0.0
 11
2.475502031792124
 21
4.394722077970172
 31
0.0
  0
LINE
  5
19B
330
1F
100
AcDbEntity
  8
0
100
AcDbLine
 10
1.461292834666093
 20
5.169912253890141
 30
0.0
 11
1.470966152432794
 21
5.185552063718964
 31
0.0
  0
LINE
  5
19C
330
1F
100
AcDbEntity
  8
0
100
AcDbLine
 10
-5.443331017579987
 20
4.175837505168939
 30
0.0
 11
-5.501704847358566
 21
4.12015208208362
 31
0.0
  0
LINE
  5
19D
330
1F
100
AcDbEntity
  8
0
100
AcDbLine
 10
-0.3643946930604297
 20
-4.627855349457298
 30
0.0
 11
-0.148274084749638
 21
-4.59596151470206
 31
0.0
  0
ENDSEC
  0
SECTION
  2
OBJECTS
  0
DICTIONARY
  5
C
330
0
100
AcDbDictionary
  3
ACAD_GROUP
350
D
  3
ACAD_LAYOUT
350
1A
  3
ACAD_MATERIAL
350
43
  3
ACAD_MLEADERSTYLE
350
6B
  3
ACAD_MLINESTYLE
350
17
  3
ACAD_PLOTSETTINGS
350
19
  3
ACAD_SCALELIST
350
47
  3
ACAD_VISUALSTYLE
350
2A
  3
ACDBHEADERROUNDTRIPXREC
350
19E
  3
ACDBVARIABLEDICTIONARY
350
1BF
  0
DICTIONARY
  5
1C6
330
8
100
AcDbDictionary
280
     1
  3
ACAD_XREC_ROUNDTRIP
360
1C7
  0
DICTIONARY
  5
D
102
{ACAD_REACTORS
330
C
102
}
330
C
100
AcDbDictionary
  0
DICTIONARY
  5
1A
102
{ACAD_REACTORS
330
C
102
}
330
C
100
AcDbDictionary
  0
DICTIONARY
  5
43
102
{ACAD_REACTORS
330
C
102
}
330
C
100
AcDbDictionary
  3
BYBLOCK
350
45
  3
BYLAYER
350
44
  3
GLOBAL
350
46
  0
DICTIONARY
  5
6B
102
{ACAD_REACTORS
330
C
102
}
330
C
100
AcDbDictionary
  3
STANDARD
350
6C
  0
DICTIONARY
  5
17
102
{ACAD_REACTORS
330
C
102
}
330
C
100
AcDbDictionary
  3
STANDARD
350
18
  0
DICTIONARY
  5
19
102
{ACAD_REACTORS
330
C
102
}
330
C
100
AcDbDictionary
  0
DICTIONARY
  5
47
102
{ACAD_REACTORS
330
C
102
}
330
C
100
AcDbDictionary
  3
A0
350
48
  3
A1
350
49
  3
A2
350
4A
  3
A3
350
4B
  3
A4
350
4C
  3
A5
350
4D
  3
A6
350
4E
  3
A7
350
4F
  3
A8
350
50
  3
A9
350
51
  3
B0
350
52
  3
B1
350
53
  3
B2
350
54
  3
B3
350
55
  3
B4
350
56
  3
B5
350
57
  3
B6
350
58
  3
B7
350
59
  3
B8
350
5A
  3
B9
350
5B
  3
C0
350
5C
  3
C1
350
5D
  3
C2
350
5E
  3
C3
350
5F
  3
C4
350
60
  3
C5
350
61
  3
C6
350
62
  3
C7
350
63
  3
C8
350
64
  3
C9
350
65
  3
D0
350
66
  3
D1
350
67
  3
D2
350
68
  0
DICTIONARY
  5
2A
102
{ACAD_REACTORS
330
C
102
}
330
C
100
AcDbDictionary
  3
2DWIREFRAME
350
2F
  3
BASIC
350
32
  3
BRIGHTEN
350
36
  3
COLORCHANGE
350
3A
  3
CONCEPTUAL
350
34
  3
DIM
350
35
  3
EDGECOLOROFF
350
3D
  3
FACEPATTERN
350
39
  3
FLAT
350
2B
  3
FLATWITHEDGES
350
2C
  3
GOURAUD
350
2D
  3
GOURAUDWITHEDGES
350
2E
  3
HIDDEN
350
31
  3
JITTEROFF
350
3B
  3
LINEPATTERN
350
38
  3
OVERHANGOFF
350
3C
  3
REALISTIC
350
33
  3
SHADED
350
42
  3
SHADED_WITH_EDGES
350
41
  3
SHADES_OF_GRAY
350
3E
  3
SKETCHY
350
3F
  3
THICKEN
350
37
  3
WIREFRAME
350
30
  3
X-RAY
350
40
  0
DICTIONARY
  5
19E
102
{ACAD_REACTORS
330
C
102
}
330
C
100
AcDbDictionary
  3
CEPSNID
350
1A8
  3
CEPSNTYPE
350
1A7
  3
DIMSTYLEDATA
350
1BE
  3
FINGERPRINTGUID
350
1A9
  3
HYPERLINKBASE
350
1A1
  3
INSUNITS
350
1A6
  3
LAYOUTDICT
350
1A3
  3
LWETCUNION
350
1A5
  3
PLOTSETDICT
350
1A4
  3
PSVPSCALE
350
1AB
  3
PUCSBASE
350
1AE
  3
PUCSORGBACK
350
1B4
  3
PUCSORGBOTTOM
350
1B0
  3
PUCSORGFRONT
350
1B3
  3
PUCSORGLEFT
350
1B1
  3
PUCSORGRIGHT
350
1B2
  3
PUCSORGTOP
350
1AF
  3
PUCSORTHOREF
350
1AC
  3
PUCSORTHOVIEW
350
1AD
  3
STYLESHEET
350
1A2
  3
TSTACKALIGN
350
19F
  3
TSTACKSIZE
350
1A0
  3
UCSBASE
350
1B7
  3
UCSORGBACK
350
1BD
  3
UCSORGBOTTOM
350
1B9
  3
UCSORGFRONT
350
1BC
  3
UCSORGLEFT
350
1BA
  3
UCSORGRIGHT
350
1BB
  3
UCSORGTOP
350
1B8
  3
UCSORTHOREF
350
1B5
  3
UCSORTHOVIEW
350
1B6
  3
VERSIONGUID
350
1AA
  0
DICTIONARY
  5
1BF
102
{ACAD_REACTORS
330
C
102
}
330
C
100
AcDbDictionary
  3
CANNOSCALE
350
1C8
  3
CMLEADERSTYLE
350
1C1
  3
CTABLESTYLE
350
1C0
  3
DIMASSOC
350
1C4
  3
HIDETEXT
350
1C5
  3
MSLTSCALE
350
1C9
  0
XRECORD
  5
1C7
102
{ACAD_REACTORS
330
1C6
102
}
330
1C6
100
AcDbXrecord
102
VTR_0.000_0.000_1.000_1.000_VISUALSTYLE
340
2F
102
VTR_0.000_0.000_1.000_1.000_GRIDDISPLAY
 70
     3
102
VTR_0.000_0.000_1.000_1.000_GRIDMAJOR
 70
     5
102
VTR_0.000_0.000_1.000_1.000_DEFAULTLIGHTING
280
     1
102
VTR_0.000_0.000_1.000_1.000_DEFAULTLIGHTINGTYPE
 70
     1
102
VTR_0.000_0.000_1.000_1.000_BRIGHTNESS
141
0.0
102
VTR_0.000_0.000_1.000_1.000_CONTRAST
142
0.0
  0
MATERIAL
  5
45
102
{ACAD_REACTORS
330
43
102
}
102
{ACAD_XDICTIONARY
360
1CC
102
}
330
43
100
AcDbMaterial
  1
BYBLOCK
  0
MATERIAL
  5
44
102
{ACAD_REACTORS
330
43
102
}
102
{ACAD_XDICTIONARY
360
1CA
102
}
330
43
100
AcDbMaterial
  1
BYLAYER
  0
MATERIAL
  5
46
102
{ACAD_REACTORS
330
43
102
}
102
{ACAD_XDICTIONARY
360
1CE
102
}
330
43
100
AcDbMaterial
  1
GLOBAL
  0
ACAD_PROXY_OBJECT
  5
6C
102
{ACAD_REACTORS
330
6B
102
}
330
6B
100
AcDbProxyObject
 90
      499
 91
      505
 93
      610
310
40901902A4063FBFFFFFE056BD1B81E855B9FC0AD7A3703D0AD73F4214DD185B99185C9900AD7A3703D0AC73F90141901A02B5E8DC0F42B1CFC02B5E8DC0F42B1CFE5764000000000000300FC0
340
14
340
0
340
11
340
0
 94
        0
1001
ACAD_MLEADERVER
1070
     2
  0
MLINESTYLE
  5
18
102
{ACAD_REACTORS
330
17
102
}
330
17
100
AcDbMlineStyle
  2
Standard
 70
     0
  3

 62
   256
 51
90.0
 52
90.0
 71
     2
 49
0.5
 62
   256
  6
BYLAYER
 49
-0.5
 62
   256
  6
BYLAYER
  0
ACAD_PROXY_OBJECT
  5
48
102
{ACAD_REACTORS
330
47
102
}
330
47
100
AcDbProxyObject
 90
      499
 91
      503
 93
       41
310
903313A31580
  0
ACAD_PROXY_OBJECT
  5
49
102
{ACAD_REACTORS
330
47
102
}
330
47
100
AcDbProxyObject
 90
      499
 91
      503
 93
      105
310
903313A324000000000000004000
  0
ACAD_PROXY_OBJECT
  5
4A
102
{ACAD_REACTORS
330
47
102
}
330
47
100
AcDbProxyObject
 90
      499
 91
      503
 93
      105
310
903313A344000000000000104000
  0
ACAD_PROXY_OBJECT
  5
4B
102
{ACAD_REACTORS
330
47
102
}
330
47
100
AcDbProxyObject
 90
      499
 91
      503
 93
      105
310
903313A354000000000000144000
  0
ACAD_PROXY_OBJECT
  5
4C
102
{ACAD_REACTORS
330
47
102
}
330
47
100
AcDbProxyObject
 90
      499
 91
      503
 93
      105
310
903313A384000000000000204000
  0
ACAD_PROXY_OBJECT
  5
4D
102
{ACAD_REACTORS
330
47
102
}
330
47
100
AcDbProxyObject
 90
      499
 91
      503
 93
      113
310
904313A31304000000000000244000
  0
ACAD_PROXY_OBJECT
  5
4E
102
{ACAD_REACTORS
330
47
102
}
330
47
100
AcDbProxyObject
 90
      499
 91
      503
 93
      113
310
904313A31364000000000000304000
  0
ACAD_PROXY_OBJECT
  5
4F
102
{ACAD_REACTORS
330
47
102
}
330
47
100
AcDbProxyObject
 90
      499
 91
      503
 93
      113
310
904313A32304000000000000344000
  0
ACAD_PROXY_OBJECT
  5
50
102
{ACAD_REACTORS
330
47
102
}
330
47
100
AcDbProxyObject
 90
      499
 91
      503
 93
      113
310
904313A333040000000000003E4000
  0
ACAD_PROXY_OBJECT
  5
51
102
{ACAD_REACTORS
330
47
102
}
330
47
100
AcDbProxyObject
 90
      499
 91
      503
 93
      113
310
904313A34304000000000000444000
  0
ACAD_PROXY_OBJECT
  5
52
102
{ACAD_REACTORS
330
47
102
}
330
47
100
AcDbProxyObject
 90
      499
 91
      503
 93
      113
310
904313A35304000000000000494000
  0
ACAD_PROXY_OBJECT
  5
53
102
{ACAD_REACTORS
330
47
102
}
330
47
100
AcDbProxyObject
 90
      499
 91
      503
 93
      121
310
905313A3130304000000000000594000
  0
ACAD_PROXY_OBJECT
  5
54
102
{ACAD_REACTORS
330
47
102
}
330
47
100
AcDbProxyObject
 90
      499
 91
      503
 93
      105
310
903323A310000000000000010100
  0
ACAD_PROXY_OBJECT
  5
55
102
{ACAD_REACTORS
330
47
102
}
330
47
100
AcDbProxyObject
 90
      499
 91
      503
 93
      105
310
903343A310000000000000410100
  0
ACAD_PROXY_OBJECT
  5
56
102
{ACAD_REACTORS
330
47
102
}
330
47
100
AcDbProxyObject
 90
      499
 91
      503
 93
      105
310
903383A310000000000000810100
  0
ACAD_PROXY_OBJECT
  5
57
102
{ACAD_REACTORS
330
47
102
}
330
47
100
AcDbProxyObject
 90
      499
 91
      503
 93
      113
310
90431303A310000000000000910100
  0
ACAD_PROXY_OBJECT
  5
58
102
{ACAD_REACTORS
330
47
102
}
330
47
100
AcDbProxyObject
 90
      499
 91
      503
 93
      121
310
9053130303A310000000000001650100
  0
ACAD_PROXY_OBJECT
  5
59
102
{ACAD_REACTORS
330
47
102
}
330
47
100
AcDbProxyObject
 90
      499
 91
      503
 93
      257
310
90E312F31323822203D2031272D3022000000000000200FC000000000000284000
  0
ACAD_PROXY_OBJECT
  5
5A
102
{ACAD_REACTORS
330
47
102
}
330
47
100
AcDbProxyObject
 90
      499
 91
      503
 93
      249
310
90D312F363422203D2031272D3022000000000000240FC000000000000284000
  0
ACAD_PROXY_OBJECT
  5
5B
102
{ACAD_REACTORS
330
47
102
}
330
47
100
AcDbProxyObject
 90
      499
 91
      503
 93
      249
310
90D312F333222203D2031272D3022000000000000280FC000000000000284000
  0
ACAD_PROXY_OBJECT
  5
5C
102
{ACAD_REACTORS
330
47
102
}
330
47
100
AcDbProxyObject
 90
      499
 91
      503
 93
      249
310
90D312F313622203D2031272D30220000000000002C0FC000000000000284000
  0
ACAD_PROXY_OBJECT
  5
5D
102
{ACAD_REACTORS
330
47
102
}
330
47
100
AcDbProxyObject
 90
      499
 91
      503
 93
      249
310
90D332F333222203D2031272D30220000000000002E0FC000000000000284000
  0
ACAD_PROXY_OBJECT
  5
5E
102
{ACAD_REACTORS
330
47
102
}
330
47
100
AcDbProxyObject
 90
      499
 91
      503
 93
      241
310
90C312F3822203D2031272D3022000000000000300FC000000000000284000
  0
ACAD_PROXY_OBJECT
  5
5F
102
{ACAD_REACTORS
330
47
102
}
330
47
100
AcDbProxyObject
 90
      499
 91
      503
 93
      249
310
90D332F313622203D2031272D3022000000000000320FC000000000000284000
  0
ACAD_PROXY_OBJECT
  5
60
102
{ACAD_REACTORS
330
47
102
}
330
47
100
AcDbProxyObject
 90
      499
 91
      503
 93
      241
310
90C312F3422203D2031272D3022000000000000340FC000000000000284000
  0
ACAD_PROXY_OBJECT
  5
61
102
{ACAD_REACTORS
330
47
102
}
330
47
100
AcDbProxyObject
 90
      499
 91
      503
 93
      241
310
90C332F3822203D2031272D3022000000000000360FC000000000000284000
  0
ACAD_PROXY_OBJECT
  5
62
102
{ACAD_REACTORS
330
47
102
}
330
47
100
AcDbProxyObject
 90
      499
 91
      503
 93
      241
310
90C312F3222203D2031272D3022000000000000380FC000000000000284000
  0
ACAD_PROXY_OBJECT
  5
63
102
{ACAD_REACTORS
330
47
102
}
330
47
100
AcDbProxyObject
 90
      499
 91
      503
 93
      241
310
90C332F3422203D2031272D30220000000000003A0FC000000000000284000
  0
ACAD_PROXY_OBJECT
  5
64
102
{ACAD_REACTORS
330
47
102
}
330
47
100
AcDbProxyObject
 90
      499
 91
      503
 93
      161
310
90A3122203D2031272D30224000000000000284000
  0
ACAD_PROXY_OBJECT
  5
65
102
{ACAD_REACTORS
330
47
102
}
330
47
100
AcDbProxyObject
 90
      499
 91
      503
 93
      257
310
90E312D312F3222203D2031272D30220000000000003E0FC000000000000284000
  0
ACAD_PROXY_OBJECT
  5
66
102
{ACAD_REACTORS
330
47
102
}
330
47
100
AcDbProxyObject
 90
      499
 91
      503
 93
      225
310
90A3322203D2031272D302200000000000002100000000000000284000
  0
ACAD_PROXY_OBJECT
  5
67
102
{ACAD_REACTORS
330
47
102
}
330
47
100
AcDbProxyObject
 90
      499
 91
      503
 93
      225
310
90A3622203D2031272D302200000000000006100000000000000284000
  0
ACAD_PROXY_OBJECT
  5
68
102
{ACAD_REACTORS
330
47
102
}
330
47
100
AcDbProxyObject
 90
      499
 91
      503
 93
      249
310
90D31272D3022203D2031272D30220000000000000A100000000000000284000
  0
ACAD_PROXY_OBJECT
  5
2F
102
{ACAD_REACTORS
330
2A
102
}
330
2A
100
AcDbProxyObject
 90
      499
 91
      501
 93
      436
310
42CC9915DA5C99599C985B595049028333333333333E33F0000000000000F90107901411070040501600405405064090741402480A0340
1001
ACAD
1000
AcDbSavedByObjectVersion
1070
     0
  0
ACAD_PROXY_OBJECT
  5
32
102
{ACAD_REACTORS
330
2A
102
}
330
2A
100
AcDbProxyObject
 90
      499
 91
      501
 93
      388
310
4150985CDA58D07406404333333333333E33F0000000000000F90107A41107004050150841D405064090741402480A0350
1001
ACAD
1000
AcDbSavedByObjectVersion
1070
     0
  0
ACAD_PROXY_OBJECT
  5
36
102
{ACAD_REACTORS
330
2A
102
}
330
2A
100
AcDbProxyObject
 90
      499
 91
      501
 93
      428
310
42109C9A59DA1D195B90C409028333333333333E33F0000000000000F9010790141107004050150841D405064090741402480A029950
1001
ACAD
1000
AcDbSavedByObjectVersion
1070
     0
  0
ACAD_PROXY_OBJECT
  5
3A
102
{ACAD_REACTORS
330
2A
102
}
330
2A
100
AcDbProxyObject
 90
      499
 91
      501
 93
      452
310
42D0DBDB1BDC90DA185B99D95104090240C333333333333E33F0000000000000F90108901411070040501508421405064090741402480A0350
1001
ACAD
1000
AcDbSavedByObjectVersion
1070
     0
  0
ACAD_PROXY_OBJECT
  5
34
102
{ACAD_REACTORS
330
2A
102
}
330
2A
100
AcDbProxyObject
 90
      499
 91
      501
 93
      500
310
4290DBDB98D95C1D1D585B10940D028333333333333E33F0000000000000F90107902409070040501000000000018199010841D405064090740C02480A0340
1001
ACAD
1000
AcDbSavedByObjectVersion
1070
     0
  0
ACAD_PROXY_OBJECT
  5
35
102
{ACAD_REACTORS
330
2A
102
}
330
2A
100
AcDbProxyObject
 90
      499
 91
      501
 93
      412
310
40D11A5B50B409028333333333333E33F0000000000000F9010790141107004050150841D405064090741402480A02677FFFFFD0
1001
ACAD
1000
AcDbSavedByObjectVersion
1070
     0
  0
ACAD_PROXY_OBJECT
  5
3D
102
{ACAD_REACTORS
330
2A
102
}
330
2A
100
AcDbProxyObject
 90
      499
 91
      501
 93
      452
310
43115919D950DBDB1BDC93D999916409028333333333333E33F0000000000000F9010790141107004050150841D405064090741402480A0350
1001
ACAD
1000
AcDbSavedByObjectVersion
1070
     0
  0
ACAD_PROXY_OBJECT
  5
39
102
{ACAD_REACTORS
330
2A
102
}
330
2A
100
AcDbProxyObject
 90
      499
 91
      501
 93
      444
310
42D19858D95C185D1D195C9B90F409028333333333333E33F0000000000000F9010790141107004050150841D405064090741402480A0350
1001
ACAD
1000
AcDbSavedByObjectVersion
1070
     0
  0
ACAD_PROXY_OBJECT
  5
2B
102
{ACAD_REACTORS
330
2A
102
}
330
2A
100
AcDbProxyObject
 90
      499
 91
      501
 93
      380
310
41119B185D240901404333333333333E33F0000000000000F9010740A907004050150841D405064090741402480A1B50
1001
ACAD
1000
AcDbSavedByObjectVersion
1070
     0
  0
ACAD_PROXY_OBJECT
  5
2C
102
{ACAD_REACTORS
330
2A
102
}
330
2A
100
AcDbProxyObject
 90
      499
 91
      501
 93
      468
310
43519B185D15DA5D1A115919D95CD0140901404333333333333E33F0000000000000F90107409019070040501600405405064090741402480A1B50
1001
ACAD
1000
AcDbSavedByObjectVersion
1070
     0
  0
ACAD_PROXY_OBJECT
  5
2D
102
{ACAD_REACTORS
330
2A
102
}
330
2A
100
AcDbProxyObject
 90
      499
 91
      501
 93
      404
310
41D1DBDD5C985D5910240902404333333333333E33F0000000000000F9010740A9070040501641D405064090741402480A1B50
1001
ACAD
1000
AcDbSavedByObjectVersion
1070
     0
  0
ACAD_PROXY_OBJECT
  5
2E
102
{ACAD_REACTORS
330
2A
102
}
330
2A
100
AcDbProxyObject
 90
      499
 91
      501
 93
      492
310
4411DBDD5C985D5915DA5D1A115919D95CD0340902404333333333333E33F0000000000000F90107409019070040501600405405064090741402480A1B50
1001
ACAD
1000
AcDbSavedByObjectVersion
1070
     0
  0
ACAD_PROXY_OBJECT
  5
31
102
{ACAD_REACTORS
330
2A
102
}
330
2A
100
AcDbProxyObject
 90
      499
 91
      501
 93
      476
310
41921A5919195B90640502408333333333333E33F0000000000000F901079024090700405020000000000001110200405405064090740C02480A0340
1001
ACAD
1000
AcDbSavedByObjectVersion
1070
     0
  0
ACAD_PROXY_OBJECT
  5
3B
102
{ACAD_REACTORS
330
2A
102
}
330
2A
100
AcDbProxyObject
 90
      499
 91
      501
 93
      428
310
42529A5D1D195C93D999914409028333333333333E33F0000000000000F9010790141107004050150A41D405064090741402480A0350
1001
ACAD
1000
AcDbSavedByObjectVersion
1070
     0
  0
ACAD_PROXY_OBJECT
  5
38
102
{ACAD_REACTORS
330
2A
102
}
330
2A
100
AcDbProxyObject
 90
      499
 91
      501
 93
      444
310
42D31A5B995C185D1D195C9B90E409028333333333333E33F0000000000000F9010790141107004050750841D405064090741402483A0350
1001
ACAD
1000
AcDbSavedByObjectVersion
1070
     0
  0
ACAD_PROXY_OBJECT
  5
3C
102
{ACAD_REACTORS
330
2A
102
}
330
2A
100
AcDbProxyObject
 90
      499
 91
      501
 93
      444
310
42D3DD995C9A185B99D3D999915409028333333333333E33F0000000000000F9010790141107004050150941D405064090741402480A0350
1001
ACAD
1000
AcDbSavedByObjectVersion
1070
     0
  0
ACAD_PROXY_OBJECT
  5
33
102
{ACAD_REACTORS
330
2A
102
}
330
2A
100
AcDbProxyObject
 90
      499
 91
      501
 93
      428
310
425499585B1A5CDD1A58D08409038333333333333E33F0000000000000F9010740A907004050150800405405064090740C02480A1B40
1001
ACAD
1000
AcDbSavedByObjectVersion
1070
     0
  0
ACAD_PROXY_OBJECT
  5
42
102
{ACAD_REACTORS
330
2A
102
}
330
2A
100
AcDbProxyObject
 90
      499
 91
      501
 93
      420
310
4194DA1859195911B40902404333333333333E33F0000000000000F9010740A41107004050150800405405064090840C02480A0B40
1001
ACAD
1000
AcDbSavedByObjectVersion
1070
     0
  0
ACAD_PROXY_OBJECT
  5
41
102
{ACAD_REACTORS
330
2A
102
}
330
2A
100
AcDbProxyObject
 90
      499
 91
      501
 93
      516
310
4454DA18591959081DDA5D1A08195919D95CD1A40902404333333333333E33F0000000000000F901074090142907004050250800405405064090740C02480A0B40
1001
ACAD
1000
AcDbSavedByObjectVersion
1070
     0
  0
ACAD_PROXY_OBJECT
  5
3E
102
{ACAD_REACTORS
330
2A
102
}
330
2A
100
AcDbProxyObject
 90
      499
 91
      501
 93
      532
310
4394DA1859195CC81BD98811DC985E5174090240C333333333333E33F0000000000000F901079024090741D01000000000000111010841D405064090740C02480A0340
1001
ACAD
1000
AcDbSavedByObjectVersion
1070
     0
  0
ACAD_PROXY_OBJECT
  5
3F
102
{ACAD_REACTORS
330
2A
102
}
330
2A
100
AcDbProxyObject
 90
      499
 91
      501
 93
      476
310
41D4DAD95D18DA1E51840502408333333333333E33F0000000000000F901079024090741D01000000000000111010B41D405064090741802480A0340
1001
ACAD
1000
AcDbSavedByObjectVersion
1070
     0
  0
ACAD_PROXY_OBJECT
  5
37
102
{ACAD_REACTORS
330
2A
102
}
330
2A
100
AcDbProxyObject
 90
      499
 91
      501
 93
      412
310
41D51A1A58DAD95B90D409028333333333333E33F0000000000000F9010790141107004050150C41D405064090741402480A0350
1001
ACAD
1000
AcDbSavedByObjectVersion
1070
     0
  0
ACAD_PROXY_OBJECT
  5
30
102
{ACAD_REACTORS
330
2A
102
}
330
2A
100
AcDbProxyObject
 90
      499
 91
      501
 93
      420
310
4255DA5C99599C985B595059028333333333333E33F0000000000000F90107901411070040501600405405064090740C02480A0340
1001
ACAD
1000
AcDbSavedByObjectVersion
1070
     0
  0
ACAD_PROXY_OBJECT
  5
40
102
{ACAD_REACTORS
330
2A
102
}
330
2A
100
AcDbProxyObject
 90
      499
 91
      501
 93
      404
310
41560B54985E51940902404000000000000E03F0000000000000F9010740501907004050150841D405064090740C02480A1B40
1001
ACAD
1000
AcDbSavedByObjectVersion
1070
     0
  0
XRECORD
  5
1A8
102
{ACAD_REACTORS
330
19E
102
}
330
19E
100
AcDbXrecord
340
0
  0
XRECORD
  5
1A7
102
{ACAD_REACTORS
330
19E
102
}
330
19E
100
AcDbXrecord
 90
        0
  0
XRECORD
  5
1BE
102
{ACAD_REACTORS
330
19E
102
}
330
19E
100
AcDbXrecord
1000
DSTYLE
1002
{
1070
   171
 70
     2
1070
   143
 40
25.4
1070
   274
 70
     2
1070
    41
 40
0.18
1070
   141
 40
0.09
1070
   271
 70
     4
1070
    43
 40
0.38
1070
   278
 70
    46
1070
    44
 40
0.18
1070
    42
 40
0.0625
1070
   147
 40
0.09
1070
    77
 70
     0
1070
   272
 70
     4
1070
    73
 70
     1
1070
   172
 70
     0
1070
    74
 70
     1
1070
   283
 70
     1
1070
   340
340
11
1070
   140
 40
0.18
1070
   284
 70
     0
1070
    78
 70
     0
1002
}
  0
XRECORD
  5
1A9
102
{ACAD_REACTORS
330
19E
102
}
330
19E
100
AcDbXrecord
  1
{fe4f18a2-9501-4880-b554-c4459c28158c}
  0
XRECORD
  5
1A1
102
{ACAD_REACTORS
330
19E
102
}
330
19E
100
AcDbXrecord
  1

  0
XRECORD
  5
1A6
102
{ACAD_REACTORS
330
19E
102
}
330
19E
100
AcDbXrecord
 90
        5
  0
XRECORD
  5
1A3
102
{ACAD_REACTORS
330
19E
102
}
330
19E
100
AcDbXrecord
340
1A
  0
XRECORD
  5
1A5
102
{ACAD_REACTORS
330
19E
102
}
330
19E
100
AcDbXrecord
 90
    10781
  0
XRECORD
  5
1A4
102
{ACAD_REACTORS
330
19E
102
}
330
19E
100
AcDbXrecord
340
19
  0
XRECORD
  5
1AB
102
{ACAD_REACTORS
330
19E
102
}
330
19E
100
AcDbXrecord
 40
0.0
  0
XRECORD
  5
1AE
102
{ACAD_REACTORS
330
19E
102
}
330
19E
100
AcDbXrecord
340
0
  0
XRECORD
  5
1B4
102
{ACAD_REACTORS
330
19E
102
}
330
19E
100
AcDbXrecord
 10
0.0
 20
0.0
 30
0.0
  0
XRECORD
  5
1B0
102
{ACAD_REACTORS
330
19E
102
}
330
19E
100
AcDbXrecord
 10
0.0
 20
0.0
 30
0.0
  0
XRECORD
  5
1B3
102
{ACAD_REACTORS
330
19E
102
}
330
19E
100
AcDbXrecord
 10
0.0
 20
0.0
 30
0.0
  0
XRECORD
  5
1B1
102
{ACAD_REACTORS
330
19E
102
}
330
19E
100
AcDbXrecord
 10
0.0
 20
0.0
 30
0.0
  0
XRECORD
  5
1B2
102
{ACAD_REACTORS
330
19E
102
}
330
19E
100
AcDbXrecord
 10
0.0
 20
0.0
 30
0.0
  0
XRECORD
  5
1AF
102
{ACAD_REACTORS
330
19E
102
}
330
19E
100
AcDbXrecord
 10
0.0
 20
0.0
 30
0.0
  0
XRECORD
  5
1AC
102
{ACAD_REACTORS
330
19E
102
}
330
19E
100
AcDbXrecord
340
0
  0
XRECORD
  5
1AD
102
{ACAD_REACTORS
330
19E
102
}
330
19E
100
AcDbXrecord
 70
     0
  0
XRECORD
  5
1A2
102
{ACAD_REACTORS
330
19E
102
}
330
19E
100
AcDbXrecord
  1

  0
XRECORD
  5
19F
102
{ACAD_REACTORS
330
19E
102
}
330
19E
100
AcDbXrecord
 90
        1
  0
XRECORD
  5
1A0
102
{ACAD_REACTORS
330
19E
102
}
330
19E
100
AcDbXrecord
 90
       70
  0
XRECORD
  5
1B7
102
{ACAD_REACTORS
330
19E
102
}
330
19E
100
AcDbXrecord
340
0
  0
XRECORD
  5
1BD
102
{ACAD_REACTORS
330
19E
102
}
330
19E
100
AcDbXrecord
 10
0.0
 20
0.0
 30
0.0
  0
XRECORD
  5
1B9
102
{ACAD_REACTORS
330
19E
102
}
330
19E
100
AcDbXrecord
 10
0.0
 20
0.0
 30
0.0
  0
XRECORD
  5
1BC
102
{ACAD_REACTORS
330
19E
102
}
330
19E
100
AcDbXrecord
 10
0.0
 20
0.0
 30
0.0
  0
XRECORD
  5
1BA
102
{ACAD_REACTORS
330
19E
102
}
330
19E
100
AcDbXrecord
 10
0.0
 20
0.0
 30
0.0
  0
XRECORD
  5
1BB
102
{ACAD_REACTORS
330
19E
102
}
330
19E
100
AcDbXrecord
 10
0.0
 20
0.0
 30
0.0
  0
XRECORD
  5
1B8
102
{ACAD_REACTORS
330
19E
102
}
330
19E
100
AcDbXrecord
 10
0.0
 20
0.0
 30
0.0
  0
XRECORD
  5
1B5
102
{ACAD_REACTORS
330
19E
102
}
330
19E
100
AcDbXrecord
340
0
  0
XRECORD
  5
1B6
102
{ACAD_REACTORS
330
19E
102
}
330
19E
100
AcDbXrecord
 70
     0
  0
XRECORD
  5
1AA
102
{ACAD_REACTORS
330
19E
102
}
330
19E
100
AcDbXrecord
  1
{FAEB1C32-E019-11D5-929B-00C0DF256EC4}
  0
DICTIONARYVAR
  5
1C8
102
{ACAD_REACTORS
330
1BF
102
}
330
1BF
100
DictionaryVariables
280
     0
  1
1:1
  0
DICTIONARYVAR
  5
1C1
102
{ACAD_REACTORS
330
1BF
102
}
330
1BF
100
DictionaryVariables
280
     0
  1
Standard
  0
DICTIONARYVAR
  5
1C0
102
{ACAD_REACTORS
330
1BF
102
}
330
1BF
100
DictionaryVariables
280
     0
  1
Standard
  0
DICTIONARYVAR
  5
1C4
102
{ACAD_REACTORS
330
1BF
102
}
330
1BF
100
DictionaryVariables
280
     0
  1
2
  0
DICTIONARYVAR
  5
1C5
102
{ACAD_REACTORS
330
1BF
102
}
330
1BF
100
DictionaryVariables
280
     0
  1
1
  0
DICTIONARYVAR
  5
1C9
102
{ACAD_REACTORS
330
1BF
102
}
330
1BF
100
DictionaryVariables
280
     0
  1
1
  0
DICTIONARY
  5
1CC
330
45
100
AcDbDictionary
280
     1
  3
ACAD_XREC_ROUNDTRIP
360
1CD
  0
DICTIONARY
  5
1CA
330
44
100
AcDbDictionary
280
     1
  3
ACAD_XREC_ROUNDTRIP
360
1CB
  0
DICTIONARY
  5
1CE
330
46
100
AcDbDictionary
280
     1
  3
ACAD_XREC_ROUNDTRIP
360
1CF
  0
XRECORD
  5
1CD
102
{ACAD_REACTORS
330
1CC
102
}
330
1CC
100
AcDbXrecord
102
MATERIAL
148
0.0
149
0.0
149
0.0
 93
        0
 94
      127
282
     0
 72
     1
 77
     1
171
     1
175
     1
179
     1
273
     0
  0
XRECORD
  5
1CB
102
{ACAD_REACTORS
330
1CA
102
}
330
1CA
100
AcDbXrecord
102
MATERIAL
148
0.0
149
0.0
149
0.0
 93
        0
 94
      127
282
     0
 72
     1
 77
     1
171
     1
175
     1
179
     1
273
     0
  0
XRECORD
  5
1CF
102
{ACAD_REACTORS
330
1CE
102
}
330
1CE
100
AcDbXrecord
102
MATERIAL
148
0.0
149
0.0
149
0.0
 93
        0
 94
      127
282
     0
 72
     1
 77
     1
171
     1
175
     1
179
     1
273
     0
  0
ENDSEC
  0
EOF
